<svg width="126" height="70" viewBox="0 0 126 70" fill="none" xmlns="http://www.w3.org/2000/svg">
<g clip-path="url(#clip0_4102_17763)">
<path fill-rule="evenodd" clip-rule="evenodd" d="M27.6567 0.16879C27.8254 0.843488 27.2069 0.731039 26.982 1.40574C26.5322 2.53024 26.9258 5.34148 25.239 5.06036C23.2149 4.66678 24.4519 -1.01193 27.6567 0.16879Z" fill="#289548"/>
<path fill-rule="evenodd" clip-rule="evenodd" d="M22.0905 3.48608C23.2712 3.76721 24.227 4.38568 24.3395 5.73508C23.6648 5.56641 23.215 6.0162 22.9338 5.73508C22.7652 4.94793 22.484 4.10456 22.0905 3.48608Z" fill="#289548"/>
<path fill-rule="evenodd" clip-rule="evenodd" d="M29.5683 2.75513C30.0181 2.75513 30.243 3.03625 30.243 3.42983C30.0744 3.42983 30.1306 3.65473 30.0744 3.76718C29.5683 3.93585 29.6246 3.54228 29.231 3.5985C29.0623 3.09248 29.5121 3.09248 29.5683 2.75513Z" fill="#A2C037"/>
<path fill-rule="evenodd" clip-rule="evenodd" d="M31.48 3.65464C31.2551 3.87954 30.8615 3.87954 30.6366 3.65464C30.5242 2.92371 31.7049 2.64259 31.48 3.65464Z" fill="#A2C037"/>
<path fill-rule="evenodd" clip-rule="evenodd" d="M29.0623 3.99216C28.5563 4.04838 28.1065 3.99216 28.2189 3.48613C28.5001 3.14878 29.231 3.26123 29.0623 3.99216Z" fill="#A2C037"/>
<path fill-rule="evenodd" clip-rule="evenodd" d="M27.1507 3.48613C27.7129 3.42991 27.994 3.71103 27.994 4.16083C27.8816 4.32951 27.5442 4.27328 27.488 4.49818C27.0944 4.44196 26.7571 3.82348 27.1507 3.48613Z" fill="#A2C037"/>
<path fill-rule="evenodd" clip-rule="evenodd" d="M32.2109 3.48608C32.2109 3.71098 32.2109 3.93588 32.2109 4.16078C31.5362 4.32946 31.5362 3.31741 32.2109 3.48608Z" fill="#A2C037"/>
<path fill-rule="evenodd" clip-rule="evenodd" d="M26.6446 8.32129C26.9819 8.32129 27.3193 8.32129 27.7129 8.32129C27.7129 8.88354 27.488 9.16466 27.3755 9.55824C26.9257 9.22089 26.251 8.99599 26.6446 8.32129Z" fill="white"/>
<path fill-rule="evenodd" clip-rule="evenodd" d="M60.9418 9.22111C59.986 9.67091 57.2872 8.49019 55.7129 9.38979C56.2189 7.70304 59.9298 8.65886 60.9418 9.22111Z" fill="#289548"/>
<path fill-rule="evenodd" clip-rule="evenodd" d="M61.9538 8.88354C61.7289 9.67069 61.504 10.4016 60.8855 10.7952C60.3795 10.5141 61.1104 8.88354 61.9538 8.88354Z" fill="#A2C037"/>
<path fill-rule="evenodd" clip-rule="evenodd" d="M56.219 9.72693C59.8174 8.88356 61.2792 11.751 61.9539 14.4498C58.8615 14.1125 57.4559 12.0884 56.0503 10.1205C57.0623 10.0081 58.3555 11.1888 59.3676 11.6948C59.2551 10.7952 57.5684 9.95183 56.219 9.72693Z" fill="#289548"/>
<path fill-rule="evenodd" clip-rule="evenodd" d="M62.2912 9.72705C62.5723 9.89573 62.8534 10.0082 62.7972 10.4018C62.5723 11.0764 62.01 11.47 61.2229 11.6387C61.504 10.9078 62.0663 10.5142 62.2912 9.72705Z" fill="#A2C037"/>
<path fill-rule="evenodd" clip-rule="evenodd" d="M27.3193 10.0645C27.994 10.1207 27.994 10.7954 28.7249 10.7392C28.2751 10.9641 27.6566 11.0203 27.1506 11.2452C26.8133 10.9641 27.2068 10.458 27.3193 10.0645Z" fill="white"/>
<path fill-rule="evenodd" clip-rule="evenodd" d="M63.3595 12.8757C62.7972 12.8194 62.9659 11.9761 62.5161 11.8074C62.9659 10.6829 64.1466 12.707 63.3595 12.8757Z" fill="#289548"/>
<path fill-rule="evenodd" clip-rule="evenodd" d="M23.3836 23.4458C22.9338 20.9719 20.5162 18.1607 23.3836 16.6426C23.215 16.4177 23.215 15.9679 22.8776 15.9679C22.1467 16.4177 22.0342 17.486 21.6407 18.2169C20.1226 17.3173 21.8093 15.5181 22.484 14.731C21.1346 14.0563 21.5282 16.6426 20.235 16.6426C20.2913 15.3494 20.9097 14.6185 21.472 13.8314C21.3595 13.6065 21.1909 13.3816 20.966 13.3253C19.8415 14 20.6286 16.5864 19.0543 16.8113C19.0543 16.0241 19.5041 15.6306 19.3917 14.731C18.211 14.731 18.9981 15.9117 18.717 16.98C16.8053 17.992 15.7371 19.7912 14.1628 21.1406C13.8816 17.9358 10.0583 12.9318 15.7371 12.7631C16.3555 13.2691 16.974 13.8314 17.48 14.5061C18.3796 10.6266 25.2391 11.0201 24.4519 16.249C25.2953 16.3053 25.7451 15.9679 26.7009 16.0804C29.8495 18.4418 27.6567 24.0081 23.3836 23.4458Z" fill="#3A59A1"/>
<path fill-rule="evenodd" clip-rule="evenodd" d="M64.4277 13.5502C63.753 13.6064 62.9659 14.1687 62.3474 13.7189C62.741 13.494 64.2028 12.4257 64.4277 13.5502Z" fill="#A2C037"/>
<path fill-rule="evenodd" clip-rule="evenodd" d="M64.2591 14.4499C64.4278 15.1808 63.1346 15.0122 62.8535 14.7873C62.8535 14.225 63.6969 14.5061 64.2591 14.4499Z" fill="#A2C037"/>
<path fill-rule="evenodd" clip-rule="evenodd" d="M63.5282 15.2932C65.1025 16.5302 63.5282 20.5221 61.2792 18.2731C60.4921 16.3053 62.1226 15.6306 63.5282 15.2932ZM61.9539 17.5984C62.4037 17.5422 62.5162 17.1486 62.6286 16.7551C62.0101 16.5864 61.5603 17.1486 61.9539 17.5984Z" fill="#C20D19"/>
<path fill-rule="evenodd" clip-rule="evenodd" d="M62.6849 16.6989C62.5724 17.0925 62.46 17.4861 62.0102 17.5423C61.5604 17.1487 62.0102 16.5865 62.6849 16.6989Z" fill="white"/>
<path fill-rule="evenodd" clip-rule="evenodd" d="M61.6165 18.7794C61.7852 19.4541 60.8293 19.3978 60.5482 19.1167C60.8293 18.6669 61.1667 18.6107 61.6165 18.7794Z" fill="#289548"/>
<path fill-rule="evenodd" clip-rule="evenodd" d="M20.0101 17.3735C15.0623 18.7792 11.2952 24.7952 13.9378 30.5864C15.2872 29.2932 16.4117 26.7631 18.2671 26.5944C17.8735 28.3936 16.6366 29.3494 16.5241 31.486C18.998 30.9237 22.8213 26.6506 22.5964 23.502C22.484 21.1406 20.5723 19.6225 20.0101 17.3735ZM17.7611 22.2651C17.7048 21.6466 17.9297 21.3093 18.0984 20.8595C16.2992 21.478 15.6808 23.3334 14.6125 24.6828C15.0623 22.2651 16.8615 19.6225 19.504 18.7792C20.0663 19.229 20.0663 20.2972 20.0101 21.3655C19.1105 19.9599 18.6607 22.1527 17.7611 22.2651Z" fill="#F5D631"/>
<path fill-rule="evenodd" clip-rule="evenodd" d="M6.79724 22.7711C6.68479 21.9277 6.01009 21.0844 4.54825 21.5342C0.218929 22.8836 7.30327 27.1004 6.79724 22.7711ZM6.06632 23.1647C5.33539 23.3334 5.22295 22.6024 5.56029 22.3213C5.72897 22.3213 5.89764 22.3213 6.06632 22.3213C6.06632 22.5462 6.06632 22.8273 6.06632 23.1647Z" fill="#F5D631"/>
<path fill-rule="evenodd" clip-rule="evenodd" d="M29.231 23.1648C25.5202 27.0443 25.9137 35.9841 18.2671 35.3656C18.8856 34.7471 20.5161 35.1969 20.6848 34.1287C20.4037 33.5102 19.4479 33.6226 18.9418 33.2853C19.6165 32.1046 21.8093 31.5985 21.3595 29.7993C20.1226 30.3054 19.2792 31.205 18.0422 31.711C17.5924 31.711 17.8173 31.5985 17.8736 31.3736C19.5041 30.2491 20.6848 29.1246 21.8655 27.3817C22.5402 26.4258 22.9338 25.0202 23.6085 24.4017C24.9017 23.2772 27.0945 23.1648 29.231 23.1648Z" fill="#3A59A1"/>
<path fill-rule="evenodd" clip-rule="evenodd" d="M6.06628 25.9198C5.05424 24.7953 2.86147 24.7391 2.74902 26.4258C2.63657 28.5062 6.45986 29.1809 6.06628 25.9198ZM5.22291 26.9881C4.60444 27.1005 4.43576 26.707 4.54821 26.1447C4.71689 26.1447 4.88556 26.1447 5.05424 26.1447C5.16669 26.3134 5.27914 26.5945 5.22291 26.9881Z" fill="#F5D631"/>
<path fill-rule="evenodd" clip-rule="evenodd" d="M28.3876 34.6348C28.5562 34.691 28.7249 34.8034 28.7249 34.9721C28.0502 36.6026 26.9257 37.7271 25.745 38.7954C26.1948 36.9962 26.8695 35.4219 28.3876 34.6348Z" fill="#289548"/>
<path fill-rule="evenodd" clip-rule="evenodd" d="M25.239 34.8032C25.4077 34.8032 25.5764 34.8032 25.745 34.8032C26.1948 36.0402 24.8454 36.8835 24.9017 38.2892C24.0021 37.3896 24.9579 35.6466 25.239 34.8032Z" fill="#289548"/>
<path fill-rule="evenodd" clip-rule="evenodd" d="M30.4679 37.0523C29.0623 37.6145 27.8254 38.4017 26.6447 39.1326C26.8133 37.7832 28.8937 36.8836 29.9619 35.8153C30.6366 35.7591 30.4117 36.49 30.4679 37.0523Z" fill="#289548"/>
<path fill-rule="evenodd" clip-rule="evenodd" d="M33.7852 37.7833C32.7731 39.695 28.8936 38.0644 27.5442 39.8636C28.0502 38.5705 31.986 36.1528 33.7852 37.7833Z" fill="#A2C037"/>
<path fill-rule="evenodd" clip-rule="evenodd" d="M35.6968 39.6948C35.6406 41.3816 33.2791 40.0884 31.7048 40.2009C30.3554 40.3133 29.2309 40.988 28.2189 41.0442C29.7369 39.8635 33.1104 38.7952 35.6968 39.6948Z" fill="#A2C037"/>
<path fill-rule="evenodd" clip-rule="evenodd" d="M32.2109 41.2693C31.8173 42.6749 29.737 41.3818 28.5563 41.944C29.1747 41.1006 31.1988 40.7071 32.2109 41.2693Z" fill="#289548"/>
<path fill-rule="evenodd" clip-rule="evenodd" d="M3.98596 41.1006C4.49199 41.213 4.88556 41.3817 5.39158 41.4379C5.16668 41.7753 5.11046 42.3375 4.54821 42.2813C4.15464 42.1126 4.09841 41.5504 3.98596 41.1006Z" fill="white"/>
<path fill-rule="evenodd" clip-rule="evenodd" d="M31.1426 42.6185C30.9177 43.6868 28.1627 43.5181 27.8253 42.6185C29.1185 42.7872 30.1305 42.1687 31.1426 42.6185Z" fill="#289548"/>
<path fill-rule="evenodd" clip-rule="evenodd" d="M8.54024 43.1809C8.59646 43.5744 8.70891 43.9118 9.04626 44.0242C8.82136 44.3054 7.92176 43.7993 7.47196 44.1929C7.35951 43.4058 7.64064 43.0122 8.54024 43.1809Z" fill="white"/>
<path fill-rule="evenodd" clip-rule="evenodd" d="M22.99 43.6868C22.5964 43.743 22.3153 43.6868 22.1466 43.5181C22.1466 42.9558 23.0462 43.1245 22.99 43.6868Z" fill="white"/>
<path fill-rule="evenodd" clip-rule="evenodd" d="M21.0784 44.3616C21.3595 44.6427 21.8656 44.6989 21.9218 45.2049C21.6407 45.2612 21.6407 45.0363 21.4158 45.0363C20.8535 44.9238 21.0784 45.5423 20.5724 45.3736C20.6286 44.98 21.1909 45.0363 21.0784 44.3616Z" fill="white"/>
<path fill-rule="evenodd" clip-rule="evenodd" d="M34.2912 46.3295C35.0784 45.711 36.484 45.0925 37.4398 45.9921C37.5523 46.6668 38.0021 47.2291 37.6085 47.9038C38.1145 47.9038 38.6768 47.9038 39.1828 47.9038C39.5764 48.3536 40.1949 49.2532 39.6888 49.9841C39.97 50.4901 40.8133 50.4901 41.2631 50.8275C41.5443 51.8395 41.2631 52.1769 40.7571 52.7391C39.6326 52.5704 38.4519 52.5142 37.4398 52.2331C37.721 51.8957 38.3957 52.0082 38.2832 51.3897C38.3394 50.4339 37.6647 50.2652 36.7089 50.3215C36.9338 49.4219 36.8776 48.9158 36.2029 48.5785C35.6969 48.5223 35.6406 48.9721 35.1346 48.9158C35.3033 48.0162 34.7973 47.8476 34.4599 47.5102C33.9539 47.454 33.5603 47.5664 33.3917 47.8476C32.9981 47.3978 32.8294 46.7793 32.1547 46.6106C31.48 46.6668 31.1427 47.1166 30.9178 47.6789C30.5804 47.2853 30.2993 46.7793 29.6808 46.6106C28.725 46.7231 28.3314 47.454 28.4439 48.6909C24.5643 47.2853 29.1748 42.0564 30.6929 46.1046C30.7491 43.968 34.6286 43.6869 34.2912 46.3295Z" fill="#F5D631"/>
<path fill-rule="evenodd" clip-rule="evenodd" d="M32.3795 47.0041C32.5482 47.3976 32.998 47.5663 32.8855 48.241C32.492 48.5784 31.9297 48.0723 31.1426 48.241C31.3113 47.5663 31.3675 46.8354 32.3795 47.0041Z" fill="#C20D19"/>
<path fill-rule="evenodd" clip-rule="evenodd" d="M29.0623 47.1727C30.9177 46.9478 30.5242 48.4096 31.1426 49.0843C32.5483 47.2289 34.5161 50.8273 31.6487 50.49C31.4238 50.1526 31.1989 49.8153 31.1426 49.253C30.6366 49.4779 31.3113 49.8715 31.1426 50.3213C30.9177 50.3213 30.6928 50.3213 30.4679 50.3213C30.5242 50.6586 30.8615 50.7711 30.8053 51.1647C30.4117 50.3775 29.3434 50.2088 29.231 49.0843C29.231 48.6345 29.5121 48.4096 29.9057 48.4096C29.5683 47.7912 29.1748 48.9157 28.8374 48.4096C28.725 47.7912 29.1748 47.7349 29.0623 47.1727Z" fill="#C20D19"/>
<path fill-rule="evenodd" clip-rule="evenodd" d="M19.6727 45.9358C18.3796 46.2731 18.6607 48.1286 18.0984 49.2531C18.1547 48.0161 18.1547 46.7792 17.7611 45.9358C17.5924 45.9358 17.4237 45.9358 17.2551 45.9358C16.6366 47.5663 17.9298 48.5784 17.7611 50.2651C18.6045 49.3655 19.1667 47.735 19.6727 45.9358Z" fill="#289548"/>
<path fill-rule="evenodd" clip-rule="evenodd" d="M19.6728 47.3413C19.1667 48.1285 18.8856 49.0843 18.6045 50.1526C19.1667 49.5341 20.741 47.9598 19.6728 47.3413Z" fill="#289548"/>
<path fill-rule="evenodd" clip-rule="evenodd" d="M34.6286 49.4219C34.235 49.2532 33.5603 49.3094 33.223 49.0845C33.223 48.7472 32.9981 48.691 33.0543 48.4098C33.9539 47.3978 35.5282 48.3536 34.6286 49.4219Z" fill="#C20D19"/>
<path fill-rule="evenodd" clip-rule="evenodd" d="M24.1708 51.7269C24.0583 51.1647 22.7089 50.3775 21.3595 50.8836C22.8214 46.6667 29.4559 47.9036 30.2993 51.7269C30.468 51.6145 30.468 51.3334 30.8053 51.3896C31.2551 52.5141 30.4117 52.6265 30.6366 53.9759C29.1186 53.6948 28.0503 53.245 26.476 53.4699C25.6326 53.5824 24.9017 54.3695 24.227 54.3133C22.7089 54.2571 22.4278 52.739 21.2471 51.8956C21.978 51.1085 23.1587 51.1647 24.1708 51.7269Z" fill="#F5D631"/>
<path fill-rule="evenodd" clip-rule="evenodd" d="M63.1908 48.5784C63.3595 48.5784 63.5281 48.5784 63.6968 48.5784C65.8896 52.2892 62.9659 56.8434 59.7048 57.7993C61.8976 56.225 63.9779 54.3133 63.5281 50.49C63.4719 49.7591 62.8534 49.4217 63.1908 48.5784Z" fill="#289548"/>
<path fill-rule="evenodd" clip-rule="evenodd" d="M64.9338 49.2531C65.6085 49.0844 65.2712 50.3213 65.1025 50.49C64.6527 50.2651 64.7652 49.7029 64.9338 49.2531Z" fill="#A2C037"/>
<path fill-rule="evenodd" clip-rule="evenodd" d="M33.0543 50.8274C33.1668 50.3214 33.5041 50.0965 33.5603 49.5905C35.9218 49.478 34.235 52.5142 33.0543 50.8274Z" fill="#C20D19"/>
<path fill-rule="evenodd" clip-rule="evenodd" d="M43.3434 50.49C43.5121 50.49 43.6807 50.49 43.8494 50.49C45.4799 51.6707 44.4679 55.1004 43.006 55.7189C42.8936 54.3695 43.7932 52.233 43.3434 50.49Z" fill="#289548"/>
<path fill-rule="evenodd" clip-rule="evenodd" d="M66.3395 50.6586C66.3395 51.3896 65.4961 51.3333 64.9338 51.502C65.1025 50.996 65.7772 50.2651 66.3395 50.6586Z" fill="#A2C037"/>
<path fill-rule="evenodd" clip-rule="evenodd" d="M35.8655 52.4018C35.1346 52.5143 34.7972 52.1769 34.4599 51.8958C34.1225 50.4902 36.8775 50.3777 35.8655 52.4018Z" fill="#C20D19"/>
<path fill-rule="evenodd" clip-rule="evenodd" d="M31.48 51.3335C31.6487 51.3335 31.8173 52.0644 31.986 51.5022C32.4358 51.8395 32.0422 52.8516 31.3113 52.5704C31.3113 52.1206 31.2551 51.5584 31.48 51.3335Z" fill="#C20D19"/>
<path fill-rule="evenodd" clip-rule="evenodd" d="M62.5161 51.3335C62.7972 51.2773 62.7972 51.5022 63.0221 51.5022C63.0221 52.964 62.4598 53.9761 62.1787 55.1568C61.8414 54.201 62.4036 52.5142 62.5161 51.3335Z" fill="#A2C037"/>
<path fill-rule="evenodd" clip-rule="evenodd" d="M67.0141 51.502C66.4519 52.233 65.4398 52.5141 64.5964 52.9077C65.1025 52.233 66.0583 51.2209 67.0141 51.502Z" fill="#A2C037"/>
<path fill-rule="evenodd" clip-rule="evenodd" d="M11.6325 53.2451C12.8133 52.9078 13.1506 51.5584 12.1386 50.8275C10.2831 50.4339 10.6767 52.2893 9.15863 52.2331C9.15863 52.0644 8.98996 52.0082 8.98996 51.8957C8.93373 51.5584 9.15863 51.5022 9.15863 51.221C10.2269 51.3897 10.508 50.8275 11.239 50.715C11.4076 49.703 10.9016 49.3094 10.5643 48.8034C9.38353 48.6347 8.82128 49.0283 8.48394 49.6467C8.48394 50.4339 9.10241 50.6588 8.65261 51.3897C8.14659 51.1086 7.97791 51.4459 7.58434 51.221C8.25904 50.715 8.48394 49.5905 7.92169 48.8034C5.11044 47.6226 5.22289 51.5584 7.41566 51.6146C6.90964 51.6708 6.85341 52.2331 6.17871 52.1206C6.29116 51.221 5.72892 51.0524 5.50402 50.5463C3.03012 49.703 3.14257 53.1889 4.99799 53.1327C5.56024 53.1327 5.44779 52.3455 6.40361 52.458C6.34739 53.0202 6.79719 53.3014 6.40361 53.6949C5.50402 53.4138 4.82932 53.4138 4.32329 53.9761C4.26707 54.5945 4.32329 55.1006 4.49197 55.5503C4.94177 55.719 5.56024 55.7752 6.23494 55.719C6.74096 55.3817 6.68474 54.4258 6.90964 53.8074C7.19076 54.2572 8.03414 54.0885 8.14659 54.6507C6.85341 54.7632 6.29116 56.5624 7.47189 57.2371C9.88956 57.5182 9.49598 55.3254 8.54016 54.2572C8.76506 53.9198 8.93374 53.47 9.60843 53.5825C8.25904 56.3937 12.4759 57.1809 11.8574 53.9198C11.4076 52.6267 9.21486 54.0885 9.27108 52.5142C10.2831 51.8957 10.6767 53.2451 11.6325 53.2451ZM7.80924 52.7391C7.80924 52.5704 7.80924 52.4018 7.80924 52.2331C8.14659 52.1769 8.25904 52.3455 8.48394 52.4018C8.48394 52.6829 8.20281 52.7953 7.80924 52.7391Z" fill="#F5D631"/>
<path fill-rule="evenodd" clip-rule="evenodd" d="M34.2913 52.4016C34.2913 53.1888 33.5603 53.1888 33.0543 53.4699C33.4479 53.0763 33.6728 52.5703 34.2913 52.4016Z" fill="#C20D19"/>
<path fill-rule="evenodd" clip-rule="evenodd" d="M42.2752 56.8996C38.3394 56.9559 37.5523 53.1326 32.8856 54.482C34.6848 51.6707 43.0061 51.7832 42.2752 56.8996Z" fill="#F5D631"/>
<path fill-rule="evenodd" clip-rule="evenodd" d="M67.5201 52.739C67.0141 53.8073 65.3274 53.6386 64.2029 54.1447C65.1587 53.6386 66.1707 52.233 67.5201 52.739Z" fill="#A2C037"/>
<path fill-rule="evenodd" clip-rule="evenodd" d="M61.1105 52.739C62.0663 53.6948 60.8294 55.3254 60.9418 56.5623C60.6045 55.6065 60.6607 53.5262 61.1105 52.739Z" fill="#A2C037"/>
<path fill-rule="evenodd" clip-rule="evenodd" d="M32.8856 53.4138C32.8856 54.201 32.492 54.4821 32.0422 54.8194C29.9056 54.5383 31.5362 51.7833 32.8856 53.4138Z" fill="#C20D19"/>
<path fill-rule="evenodd" clip-rule="evenodd" d="M45.0864 53.0764C45.3675 53.0202 45.3675 53.2451 45.5924 53.2451C45.5924 53.9198 45.255 54.2009 44.749 54.3134C44.6366 53.6949 45.0864 53.6387 45.0864 53.0764Z" fill="#A2C037"/>
<path fill-rule="evenodd" clip-rule="evenodd" d="M45.2551 54.8193C44.974 54.3695 47.6728 52.233 47.1667 54.1446C46.6045 54.482 45.7611 54.482 45.2551 54.8193Z" fill="#A2C037"/>
<path fill-rule="evenodd" clip-rule="evenodd" d="M25.9137 57.6305C25.1828 57.9679 24.4519 58.3614 24.0021 59.0361C21.4157 53.9197 29.1185 52.4016 31.48 55.2128C35.472 55.0442 39.1266 59.8795 36.2029 62.8594C34.6286 62.241 34.5161 60.2169 33.7852 58.8675C33.0543 60.7229 35.4157 61.8474 35.1908 63.1968C31.7611 62.9719 30.3555 60.0482 31.1989 56.5622C30.2993 58.755 26.982 61.1727 24.227 59.3735C24.5643 58.5863 25.4639 58.3052 25.9137 57.6305Z" fill="#3A59A1"/>
<path fill-rule="evenodd" clip-rule="evenodd" d="M59.7048 53.9761C59.8735 53.9761 60.0422 53.9761 60.2108 53.9761C60.2671 55.4941 60.0984 56.7311 59.1426 57.2933C59.5924 56.3937 59.3675 54.8757 59.7048 53.9761Z" fill="#A2C037"/>
<path fill-rule="evenodd" clip-rule="evenodd" d="M66.5081 54.6508C66.1708 55.6066 64.5965 55.2693 63.6969 55.7191C63.6407 55.1568 65.5523 54.2572 66.5081 54.6508Z" fill="#A2C037"/>
<path fill-rule="evenodd" clip-rule="evenodd" d="M21.5844 54.6506C21.3033 55.1004 20.9098 55.494 20.7411 56.0563C20.8535 56.5623 21.1347 55.8876 21.4158 56.0563C20.1226 58.9237 24.3395 60.8916 22.0905 62.5221C19.9539 62.0161 20.4037 59.0924 20.5162 56.7872C19.5604 58.9237 19.729 63.8153 21.7531 64.0964C23.6648 64.3775 23.7772 61.735 25.4077 61.2852C27.2632 61.6787 26.0824 64.2651 25.4077 65.1085C18.717 68.5944 16.8053 56.6747 21.5844 54.6506Z" fill="#289548"/>
<path fill-rule="evenodd" clip-rule="evenodd" d="M41.4318 57.2932C41.7129 58.0241 40.4197 58.755 39.8575 58.8675C37.1587 59.3173 35.5844 55.5502 33.3916 55.0442C37.2711 53.4137 38.6767 57.2932 41.4318 57.2932Z" fill="#F5D631"/>
<path fill-rule="evenodd" clip-rule="evenodd" d="M47.3354 54.8194C47.1667 55.4378 46.1547 55.2692 45.5924 55.4941C45.7049 54.8194 46.7731 54.482 47.3354 54.8194Z" fill="#A2C037"/>
<path fill-rule="evenodd" clip-rule="evenodd" d="M15.6808 60.3856C15.4559 57.4619 18.0985 55.8314 20.4037 54.8193C18.5483 56.4499 18.0422 59.3736 15.6808 60.3856Z" fill="#A2C037"/>
<path fill-rule="evenodd" clip-rule="evenodd" d="M64.4277 56.3938C64.3715 57.2371 63.247 57.0685 62.3474 57.0685C62.8534 56.6749 63.3595 56.2813 64.4277 56.3938Z" fill="#A2C037"/>
<path fill-rule="evenodd" clip-rule="evenodd" d="M17.9298 58.8113C18.6045 59.3735 17.9861 60.2169 18.0985 60.8916C18.3234 62.747 20.2913 64.0964 19.6728 66.1205C16.1306 67.0201 16.5242 60.1045 17.9298 58.8113Z" fill="#A2C037"/>
<path fill-rule="evenodd" clip-rule="evenodd" d="M30.974 62.8596C30.0181 63.703 29.0623 64.5464 27.3193 64.6026C27.488 62.9158 29.9057 63.5343 30.974 62.8596Z" fill="#289548"/>
<path fill-rule="evenodd" clip-rule="evenodd" d="M31.48 63.8716C30.4679 64.6587 29.5683 66.2893 28.1627 66.1206C28.0502 64.7712 30.0743 64.2652 31.48 63.8716Z" fill="#289548"/>
<path fill-rule="evenodd" clip-rule="evenodd" d="M29.0623 67.5262C29.1185 65.5021 31.1426 65.5583 32.0422 64.3776C32.3233 64.3214 32.3795 64.49 32.3795 64.7149C31.1988 65.5583 30.6928 67.7511 29.0623 67.5262Z" fill="#289548"/>
<path fill-rule="evenodd" clip-rule="evenodd" d="M32.5482 64.6025C32.8293 65.4459 32.2671 69.8877 30.2992 68.4258C30.5803 66.6829 32.0422 66.1206 32.5482 64.6025Z" fill="#A2C037"/>
<path fill-rule="evenodd" clip-rule="evenodd" d="M33.6166 65.2773C33.9539 66.1207 33.7852 68.2573 33.1105 69.1006C31.0864 68.4822 33.3354 66.3456 33.6166 65.2773Z" fill="#A2C037"/>
<path fill-rule="evenodd" clip-rule="evenodd" d="M34.4599 65.6145C34.966 66.4017 35.2471 68.9318 34.4599 69.4378C33.223 68.6506 34.6286 66.9639 34.4599 65.6145Z" fill="#289548"/>
<path fill-rule="evenodd" clip-rule="evenodd" d="M36.7089 65.7832C37.4398 66.6828 38.733 68.3133 38.1145 69.4378C36.99 69.6065 36.7089 67.4137 36.7089 65.7832Z" fill="#289548"/>
<path fill-rule="evenodd" clip-rule="evenodd" d="M35.3033 65.9519C35.8093 66.5704 36.99 68.8194 35.8093 69.4378C34.8535 69.1567 35.5282 67.1326 35.3033 65.9519Z" fill="#289548"/>
<path fill-rule="evenodd" clip-rule="evenodd" d="M45.7611 7.14062C45.9298 7.92777 44.5242 8.71492 43.6808 9.05227C45.48 9.89565 46.492 8.77115 48.235 8.37757C47.8977 8.82737 47.3916 9.05227 46.8294 9.22095C48.0101 10.1205 49.978 8.99605 51.7209 8.8836C51.3836 9.44585 50.484 9.38962 49.8093 9.5583C50.3715 10.1205 51.496 10.0643 52.227 10.4017C50.6527 10.5141 48.4037 9.83942 46.492 9.72697C46.9981 10.3454 47.8414 10.5703 48.5723 10.9639C47.0543 10.5703 44.6928 9.27717 42.6687 9.72697C43.737 10.3454 44.8053 10.9639 45.8173 11.6386C44.0181 11.4699 42.2752 9.05227 39.1828 10.0643C39.9699 11.1888 41.6567 11.4137 42.3314 12.6507C40.7009 12.1446 38.8454 9.16472 36.9338 11.0764C37.2711 11.3575 38.0583 11.245 38.3394 11.5824C37.3274 11.7511 35.7531 11.3013 35.3595 11.9197C36.2029 10.0081 38.9017 10.0081 39.5201 7.92777C39.9699 8.49002 39.0141 9.1085 38.8454 9.67075C40.476 9.38962 41.3193 8.32135 42.3314 7.42175C42.5563 8.15267 41.2069 8.8836 40.5884 9.3334C42.5563 9.61452 44.7491 8.49002 45.7611 7.14062Z" fill="white"/>
<path fill-rule="evenodd" clip-rule="evenodd" d="M41.7691 6.07244C42.7249 5.95999 43.737 4.32946 45.2551 4.16079C45.3675 5.06039 44.9177 5.34151 44.749 5.90376C45.48 5.79131 46.6045 4.61059 47.729 4.32946C47.729 4.83549 47.729 5.39774 47.729 5.90376C48.7972 5.56641 50.4278 5.79131 51.5523 5.56641C51.7772 6.40979 50.99 6.29734 51.0462 6.97203C52.1707 7.30938 53.5763 7.36561 54.5322 7.81541C54.4759 8.60256 53.8575 8.88368 53.2952 9.22103C54.4197 9.8395 55.3755 10.6267 56.4438 11.3014C55.6567 12.3134 53.8575 12.3134 52.1145 12.3696C51.7772 12.5945 52.6768 13.0443 52.7892 13.4379C52.1145 14.0001 50.6527 14.0564 49.6406 13.7752C49.1346 14.0001 49.9217 14.3937 49.8093 14.8435C48.6848 15.0684 47.2229 15.0684 46.3233 14.6748C45.986 14.6748 46.6045 15.3495 46.1547 15.5182C44.8053 15.968 43.4559 15.4058 42.6687 14.8435C42.1065 15.1246 43.0061 15.7993 42.5 16.0805C40.5884 15.9118 39.1828 15.2371 38.3394 14.0001C37.9458 14.0564 38.3394 14.8997 38.0021 15.0684C36.5402 14.956 36.3715 13.5503 35.5844 12.8194C33.7852 15.462 32.5482 18.6106 29.6808 20.1287C29.1747 20.1287 29.0623 19.6789 28.6125 19.6226C29.8494 17.7672 32.1547 17.0363 33.1667 14.8997C31.8173 15.4058 30.1868 18.0483 28.2751 18.0483C29.5121 15.7431 32.492 15.1809 33.8414 12.9881C32.492 12.9881 31.0302 16.0242 29.1185 14.8997C30.749 13.0443 34.0663 12.8756 35.0221 10.3455C33.5041 10.7391 31.8173 10.458 31.1988 9.50216C31.2551 9.10858 32.0984 9.38971 32.2671 9.50216C31.5924 8.60256 29.737 7.98408 30.5241 6.18489C31.1426 6.29734 31.1988 6.97203 31.3675 7.59051C31.9298 6.80336 29.7932 5.06039 31.5362 4.61059C32.1547 6.12866 32.6607 7.75918 34.3474 8.26521C34.741 7.70296 33.3354 7.42183 33.5041 6.52224C34.2912 6.40979 34.5723 6.85959 34.9097 7.19693C34.6286 6.24111 33.4478 6.07244 32.8294 5.45396C33.5603 4.44191 34.5723 5.79131 35.0784 6.12866C35.0784 5.56641 34.5161 5.62264 34.741 4.89171C35.4157 4.61059 36.3715 5.06039 36.1466 6.29734C36.2591 6.74714 36.6527 5.73509 36.99 6.29734C36.7651 7.59051 36.5402 8.82746 35.9217 9.78328C36.7089 8.77123 37.7772 8.04031 38.0021 6.46601C38.6205 6.29734 38.227 7.14071 38.3394 7.53428C39.5201 6.18489 40.4759 4.66681 42.3314 4.04834C42.8936 4.27324 41.994 5.51019 41.7691 6.07244ZM40.5322 9.38971C41.1506 8.88368 42.5 8.20898 42.2751 7.47806C41.2631 8.43388 40.4197 9.44593 38.7892 9.72705C38.9579 9.22103 39.9137 8.54633 39.4639 7.98408C38.8454 10.0644 36.0904 10.0644 35.3033 11.9761C35.6406 11.3576 37.2711 11.8074 38.2832 11.6387C38.0021 11.3014 37.2149 11.4138 36.8776 11.1327C38.7892 9.22103 40.6446 12.201 42.2751 12.707C41.6004 11.47 39.9137 11.1889 39.1265 10.1206C42.1627 9.10858 43.9619 11.5263 45.7611 11.6949C44.749 11.0202 43.6808 10.4018 42.6125 9.78328C44.6928 9.27726 46.998 10.6267 48.5161 11.0202C47.7852 10.6267 46.9418 10.4018 46.4358 9.78328C48.3474 9.89573 50.5964 10.6267 52.1707 10.458C51.4398 10.1206 50.2591 10.1769 49.7531 9.61461C50.484 9.44593 51.3274 9.44593 51.6647 8.93991C49.978 8.99613 48.0101 10.1206 46.8294 9.22103C47.3916 8.99613 47.8976 8.77123 48.235 8.37766C46.492 8.82746 45.48 9.95195 43.6808 9.05236C44.5241 8.71501 45.9298 7.92786 45.7611 7.14071C44.749 8.49011 42.5563 9.61461 40.5322 9.38971Z" fill="#289548"/>
<path fill-rule="evenodd" clip-rule="evenodd" d="M10.9579 28.0001C10.5643 30.1929 12.7009 31.3174 13.2069 33.2291C10.1145 31.9359 8.03418 30.0805 7.97796 26.7632C7.92173 23.5022 10.9017 20.3536 10.5643 17.711C10.5081 16.9238 9.77716 16.5303 9.88961 15.968C12.1386 16.6427 13.9378 19.3977 13.5442 22.6026C13.2631 25.0202 11.2952 28.1126 13.3755 30.0805C12.5322 30.1367 12.2511 28.1126 10.9579 28.0001Z" fill="#3A59A1"/>
<path fill-rule="evenodd" clip-rule="evenodd" d="M20.8535 30.3053C20.7972 31.4298 19.1667 32.5543 18.0422 33.2852C18.6045 33.735 19.3916 33.9037 20.1225 34.1286C19.4478 34.747 17.8735 34.747 16.8053 34.4659C16.6928 35.2531 17.3113 35.2531 17.3113 35.8715C16.3555 35.9277 16.0181 35.4217 15.3997 35.1968C15.1748 36.4338 15.5121 37.8956 15.3997 39.5261C15.9619 38.2892 16.6928 36.3213 17.986 36.3775C17.5362 38.4016 15.1185 39.6386 16.243 42.1125C17.7049 39.0201 19.3354 35.2531 23.2149 35.1406C22.6527 36.8273 20.5161 36.8273 19.729 38.2892C20.5161 38.4579 21.8655 37.6145 22.8776 38.2892C20.5161 39.8073 17.1426 40.3695 16.8053 43.8555C14.725 43.8555 13.7691 44.98 12.2511 45.5984C12.0262 44.1366 14.0503 43.5743 15.3997 43.1808C14.8374 42.3936 14.1065 42.5623 13.3193 42.6747C13.3756 41.9438 14.0503 41.8876 14.725 41.8314C14.2752 40.988 13.2069 40.6506 12.982 39.5824C13.6005 39.1888 13.994 40.2571 14.5563 40.4257C13.0944 38.3454 11.2952 36.6024 9.66471 34.6908C7.35949 35.7029 5.67274 33.8474 2.8615 34.3535C1.9619 34.5221 1.737 35.3093 0.443829 35.0282C0.275154 32.7229 2.97395 31.8796 4.4358 30.6988C10.227 30.6988 11.0703 36.6587 14.725 39.0763C14.3876 36.3775 11.5201 36.2651 11.239 33.5101C13.1507 34.0723 13.7691 35.8715 14.5563 37.502C14.8374 36.49 14.3314 34.9157 14.725 33.6788C13.7129 33.3976 14.2752 34.747 13.3193 34.5221C13.2069 33.8474 13.488 33.5101 13.6567 33.1165C12.7009 31.8233 11.5764 30.6988 11.239 28.7872C12.3073 29.5743 12.7571 30.98 14.3876 31.2049C15.3434 29.6868 15.9619 27.8876 17.7049 27.2129C17.1426 28.731 15.5121 30.1366 16.1306 32.2731C18.3796 32.2169 19.7852 31.3735 20.8535 30.3053Z" fill="#289548"/>
<path fill-rule="evenodd" clip-rule="evenodd" d="M8.70889 17.7671C8.48399 18.5542 8.70889 18.3293 8.87756 19.004C8.20287 18.8916 8.03419 19.3414 7.30327 19.1727C9.10246 21.7591 4.15467 21.8153 5.39162 19.1727C5.84142 19.004 6.74102 18.8354 7.13459 19.1727C7.58439 18.6667 7.86552 17.8795 8.70889 17.7671Z" fill="#C20D19"/>
<path fill-rule="evenodd" clip-rule="evenodd" d="M13.7129 49.422C12.8133 49.2533 11.6888 49.7031 12.3073 50.4902C12.7571 50.0404 13.6005 50.0967 13.7129 49.422Z" fill="#289548"/>
<path fill-rule="evenodd" clip-rule="evenodd" d="M17.0301 52.4018C15.5683 51.7271 15.0623 52.9641 14.2189 53.4701C13.2068 51.1649 15.0623 49.4781 16.2992 48.4099C15.737 48.185 14.8374 48.2412 14.0502 48.2412C14.4438 47.6227 13.2068 47.454 12.6446 47.1729C11.9699 46.7231 11.9699 45.5424 10.733 45.5986C10.6767 47.5103 12.7008 47.3416 13.7129 48.185C11.8012 48.185 8.93376 47.2854 8.14661 47.3416C10.002 48.2974 11.9699 49.0846 14.9498 48.9159C12.0261 50.2091 13.4317 57.5745 16.6928 55.8878C17.5924 55.438 17.9297 53.4139 17.0301 52.4018Z" fill="#289548"/>
<path fill-rule="evenodd" clip-rule="evenodd" d="M34.7972 49.984C35.0784 49.478 35.8655 48.8033 36.3715 49.1406C36.7089 49.5342 36.484 50.3213 36.2029 50.5462C36.5402 50.9398 37.5523 50.6025 37.9458 50.8836C38.1145 51.8394 37.3836 51.9519 36.5402 51.9519C36.8213 50.4338 35.1346 50.8274 34.7972 49.984Z" fill="#C20D19"/>
<path fill-rule="evenodd" clip-rule="evenodd" d="M28.3876 7.59056C30.1868 7.36566 31.1988 10.5705 28.8936 10.5705C29.2872 10.9078 29.6245 11.3576 29.737 11.9761C29.5121 12.9319 28.9498 13.4942 27.6566 13.3817C26.8695 12.8757 27.2068 10.4018 25.5763 11.3014C26.0823 12.0886 27.2631 12.5384 26.8133 13.7191C25.8012 14.6749 24.002 14.1689 23.8333 12.8757C23.9458 11.9199 25.1827 11.9761 25.239 10.9641C25.1827 10.7954 25.0703 10.7954 25.0703 10.6267C24.1145 10.5143 24.2269 11.4139 24.002 12.0323C23.3273 12.3697 22.4277 12.201 21.9217 11.8637C21.753 11.4139 21.6968 10.7954 21.753 10.1207C22.2028 9.83956 22.5402 9.50221 23.1586 9.44598C23.5522 9.72711 23.8896 10.0082 24.2269 10.2894C24.7892 10.458 24.5643 9.83956 24.9016 9.78333C24.9016 8.99618 23.7771 8.93996 23.1586 9.27731C19.9538 7.47811 25.5763 4.32952 25.0703 8.93996C25.745 8.93996 26.0823 8.54638 26.3072 8.09659C26.251 7.53434 25.6325 7.47811 25.6325 6.85964C25.4639 4.10462 30.1868 5.56647 28.3876 7.59056ZM27.3193 9.33353C27.4317 8.93996 27.7129 8.65883 27.6566 8.09659C27.3193 8.09659 26.9819 8.09659 26.5884 8.09659C26.251 8.77128 26.9257 8.99618 27.3193 9.33353ZM27.1506 11.0765C27.6004 10.8516 28.2751 10.7954 28.7249 10.5705C27.994 10.6267 27.994 9.89578 27.3193 9.89578C27.2068 10.2331 26.8133 10.7392 27.1506 11.0765Z" fill="#C20D19"/>
<path fill-rule="evenodd" clip-rule="evenodd" d="M7.30332 44.5864C7.02219 44.5864 6.74107 44.5864 6.45995 44.5864C6.23505 45.5985 7.02219 45.6547 7.13464 46.3294C6.3475 49.8716 2.35553 45.486 5.8977 44.9238C5.8977 44.3615 5.4479 44.3053 5.05432 44.2491C5.11055 46.7792 1.00613 47.0041 2.46798 43.7431C3.14268 43.2933 3.92983 43.6306 4.49207 43.8555C4.88565 43.7431 4.66075 42.7872 4.49207 42.6186C2.91778 44.0804 0.387657 42.225 2.0744 40.5382C2.63665 40.5945 3.36758 40.4258 3.6487 40.7069C2.86155 38.964 5.72902 37.7832 6.45995 39.47C6.62862 40.4258 6.06637 40.5382 5.95392 41.2129C6.1226 41.6627 6.62862 41.6627 7.19087 41.719C7.02219 40.7069 6.62862 39.976 7.19087 39.1326C8.42782 38.6828 9.38364 39.0764 9.60854 39.8073C10.1146 41.4378 8.20292 41.6627 7.35954 42.3937C8.42782 43.6306 8.65272 41.6065 9.60854 41.5503C11.6326 41.3816 12.0824 44.1929 9.60854 44.3615C10.0583 45.4298 9.49609 46.1607 9.10252 46.7792C7.64067 46.9479 6.62862 45.9358 7.30332 44.5864ZM4.49207 42.2812C5.11055 42.2812 5.16677 41.7752 5.33545 41.4378C4.82942 41.3254 4.43585 41.1567 3.92983 41.1005C4.0985 41.5503 4.15472 42.1125 4.49207 42.2812ZM7.47199 44.1929C7.92179 43.7993 8.82139 44.3053 9.04629 44.0242C8.70894 43.9117 8.59649 43.5744 8.54027 43.1808C7.64067 43.0121 7.35954 43.4057 7.47199 44.1929Z" fill="#C20D19"/>
<path fill-rule="evenodd" clip-rule="evenodd" d="M23.3274 42.1125C23.2711 42.5623 23.6085 42.6748 23.8334 42.7872C24.0021 42.6748 23.6647 41.7752 24.0021 41.3816C25.1828 40.2571 27.5442 41.9438 26.0824 42.9559C26.7009 43.5181 27.0944 44.9238 26.2511 45.5422C25.5201 45.486 25.6326 44.6426 25.1828 44.3053C26.476 45.6547 24.227 48.9157 22.7651 46.5543C22.6527 45.8796 22.9338 45.5422 23.1025 45.1487C22.8213 45.1487 22.5402 45.1487 22.2591 45.1487C22.9338 46.6667 21.8655 48.1848 20.5161 47.5663C20.235 47.1165 19.8976 46.0483 20.3474 45.486C18.5482 45.9358 17.9298 43.9679 18.9418 43.0683C19.729 43.1246 20.2912 43.4619 21.0221 43.5744C21.3595 43.5744 21.1346 43.0121 21.3595 42.8997C17.7611 44.3053 19.3354 38.6266 21.6968 40.988C21.7531 41.6065 21.6406 41.9438 21.5282 42.3936C21.5844 42.6185 22.484 42.1687 22.7651 42.0563C22.3715 41.494 21.6968 41.1567 21.6968 40.1446C23.3836 38.3455 25.5201 41.0442 23.3274 42.1125ZM22.0904 43.5181C22.3153 43.6868 22.5402 43.743 22.9338 43.6868C23.0462 43.1246 22.1466 42.9559 22.0904 43.5181ZM20.5161 45.4298C21.0784 45.5422 20.8535 44.9238 21.3595 45.0924C21.5844 45.0924 21.5844 45.3173 21.8655 45.2611C21.8093 44.7551 21.247 44.6989 21.0221 44.4177C21.1908 45.0362 20.6286 44.98 20.5161 45.4298Z" fill="#3A59A1"/>
<path fill-rule="evenodd" clip-rule="evenodd" d="M50.1466 67.6948C49.8093 68.2009 51.1025 68.5944 50.99 69.4378C48.741 69.2129 47.2229 68.2571 45.7611 67.1888C45.48 67.9197 46.6607 68.7069 46.4358 70.0001C45.0864 69.2691 43.8494 68.4258 42.7812 67.4137C42.4438 67.6386 42.5 68.3133 42.2751 68.6507C41.1506 68.0884 40.982 66.5703 40.1948 65.6707C39.9699 65.8956 39.8575 66.2892 39.8575 66.739C39.2952 66.1768 39.1828 64.6587 39.5201 63.7591C39.1828 62.9719 37.5523 63.478 37.6085 62.3535C39.5201 62.6346 41.994 63.9278 43.1747 65.5021C42.9498 64.8836 42.4438 64.49 41.9378 64.0964C43.8494 63.3655 45.4237 64.4338 46.2671 65.3334C46.5482 64.8274 45.0302 64.6025 45.0302 63.7591C47.2229 62.6346 48.0101 64.9398 49.5844 65.5021C49.3595 64.3776 47.8976 64.5462 47.6727 63.4217C49.5844 62.2972 50.8213 63.984 52.3956 64.2651C51.8334 63.7029 50.99 63.4217 50.3153 63.0282C51.2149 62.0161 52.9579 62.4659 54.3073 62.6908C54.4197 62.0161 53.1265 62.747 53.239 62.0161C54.7008 61.7912 55.5442 60.9479 56.8936 60.6105C55.6004 60.4418 54.1948 61.6225 52.733 61.8474C53.2952 61.2852 53.9137 60.8354 54.4759 60.2731C53.239 60.3856 52.4519 62.4097 50.484 62.3535C50.4278 61.3414 51.3274 61.3414 51.3274 60.4418C50.7089 60.4418 50.1466 61.9599 49.7531 62.6908C48.5161 62.4659 48.0663 63.0844 46.9418 63.0282C47.4478 62.241 48.3474 61.8474 48.6848 60.9479C47.5603 61.1727 46.492 63.8715 44.6928 63.3655C45.0302 62.5784 45.5924 61.9599 46.0984 61.2852C45.4237 61.3976 44.5804 62.9157 43.8494 63.5342C43.3996 63.4217 42.4438 63.7591 42.2751 63.3655C41.4318 63.3093 42.6687 62.8595 42.6125 62.5221C41.994 62.5784 41.994 63.3093 41.2069 63.1968C40.5884 62.8595 40.9257 62.6346 40.1386 63.0282C39.745 62.1286 39.1828 60.3294 40.1386 59.5422C40.5884 59.4298 40.4759 59.8796 40.8133 59.8796C40.982 57.6868 42.7249 58.1366 43.6245 56.731C43.9619 56.8434 44.0181 57.0121 43.7932 57.237C44.6928 57.0683 44.8615 56.225 45.8735 56.1687C45.8173 56.5623 45.5924 56.8434 45.7049 57.4057C46.7731 57.0683 47.4478 54.8756 49.3595 54.8193C49.3595 55.494 49.3595 56.225 49.3595 56.8997C50.2029 56.1687 51.0462 54.5382 52.3394 54.8193C52.4518 55.5503 52.0583 55.7189 52.1707 56.3936C52.6767 56.3936 53.4077 55.2129 54.7571 55.5503C54.8133 56.2812 54.5884 56.6748 54.4197 57.1246C55.5442 56.731 56.8374 55.8314 58.4117 56.4499C58.243 57.2932 57.8494 57.8555 57.5683 58.5302C58.5241 58.7551 59.986 58.4177 61.0543 58.8675C60.5482 61.0041 58.8615 62.0161 57.231 63.0282C57.3996 63.7591 58.1868 63.9278 58.2992 64.7711C57.6245 65.3334 55.7129 65.2209 54.982 64.7711C54.982 65.5583 55.994 65.3896 55.8253 66.3454C54.8133 66.2892 54.1386 66.6266 53.0141 66.5141C53.0141 67.3013 53.8012 67.3575 53.6888 68.2571C52.3956 68.2571 50.9338 68.3133 50.1466 67.6948Z" fill="#289548"/>
<path d="M56.5 45.7672C56.4438 45.7672 56.4438 45.7672 56.3876 45.7672C56.3314 45.7672 56.3314 45.7672 56.2751 45.7672C56.2189 45.7672 56.2189 45.7672 56.1627 45.711C56.1065 45.6548 56.1065 45.6548 56.0502 45.6548L56.1065 45.205C56.1627 45.205 56.1627 45.2612 56.2189 45.2612C56.2751 45.2612 56.3314 45.3174 56.3876 45.3174C56.4438 45.3174 56.5563 45.3174 56.6125 45.2612C56.6687 45.205 56.7249 45.1487 56.7812 45.0363L55.7129 42.8435H56.3314L57.0623 44.4178L57.737 42.8435H58.3555L57.3434 45.0925C57.2872 45.205 57.231 45.3174 57.1747 45.4299C57.1185 45.5423 57.0623 45.5985 57.0061 45.6548C56.9498 45.711 56.8936 45.7672 56.7812 45.7672C56.6687 45.7672 56.6125 45.7672 56.5 45.7672Z" fill="#333333"/>
<path d="M59.255 44.0241H59.4799L60.3795 42.7871H61.0542L59.986 44.1927L61.1667 45.7108H60.5482L59.5924 44.4739H59.3113V45.7108H58.749V42.7871H59.3113V44.0241H59.255Z" fill="#333333"/>
<path d="M61.3916 45.7108V42.7871H62.6285C62.741 42.7871 62.9097 42.8433 63.0221 42.8996C63.1346 42.9558 63.247 43.012 63.3032 43.1245C63.3595 43.2369 63.4719 43.3494 63.4719 43.4618C63.5281 43.5743 63.5281 43.6867 63.5281 43.7992C63.5281 43.9116 63.5281 44.0241 63.4719 44.1365C63.4157 44.249 63.3595 44.3614 63.3032 44.4739C63.247 44.5863 63.1346 44.6425 63.0221 44.6988C62.9097 44.755 62.7972 44.755 62.6285 44.755H61.9539V45.767H61.3916V45.7108ZM61.9539 44.249H62.6285C62.741 44.249 62.7972 44.1927 62.9097 44.1365C62.9659 44.0241 63.0221 43.9116 63.0221 43.7992C63.0221 43.7429 63.0221 43.6305 62.9659 43.5743C62.9659 43.518 62.9097 43.4618 62.8534 43.4056C62.7972 43.3494 62.7972 43.3494 62.741 43.2931C62.6848 43.2931 62.6285 43.2369 62.5723 43.2369H61.9539V44.249V44.249Z" fill="#333333"/>
<path d="M64.5965 42.7871H65.1025L66.227 45.7108H65.6647L65.3836 44.9799H64.3716L64.0904 45.7108H63.5282L64.5965 42.7871ZM65.2712 44.5863L64.8776 43.4056L64.4278 44.5863H65.2712Z" fill="#333333"/>
<path d="M66.2269 42.4499V41.9438H66.6767V42.4499H66.2269ZM66.5643 45.7109V42.7872H67.1265V45.7109H66.5643ZM67.0141 42.4499V41.9438H67.4639V42.4499H67.0141Z" fill="#333333"/>
<path d="M70.2189 42.7871V45.7108H69.6566V44.4739H68.3072V45.7108H67.745V42.7871H68.3072V43.9678H69.6566V42.7871H70.2189Z" fill="#333333"/>
<path d="M70.6687 44.2491C70.6687 44.0805 70.7249 43.9118 70.7811 43.7431C70.8374 43.5744 70.9498 43.4058 71.0623 43.2933C71.1747 43.1809 71.3434 43.0684 71.5121 42.956C71.6807 42.8435 71.9056 42.8435 72.1305 42.8435C72.4117 42.8435 72.6366 42.8997 72.8052 43.0122C73.0301 43.1246 73.1426 43.2933 73.255 43.462L72.8052 43.7431C72.749 43.6869 72.6928 43.5744 72.6928 43.5182C72.6366 43.462 72.5803 43.4058 72.5241 43.4058C72.4679 43.3495 72.4117 43.3495 72.2992 43.3495C72.243 43.3495 72.1868 43.3495 72.0743 43.3495C71.9056 43.3495 71.7932 43.4058 71.6807 43.462C71.5683 43.5182 71.5121 43.5744 71.3996 43.6869C71.3434 43.7993 71.2872 43.9118 71.231 44.0242C71.1747 44.1367 71.1747 44.2491 71.1747 44.3616C71.1747 44.474 71.1747 44.6427 71.231 44.7552C71.2872 44.8676 71.3434 44.9801 71.3996 45.0925C71.4558 45.205 71.5683 45.2612 71.6807 45.3174C71.7932 45.3736 71.9056 45.3736 72.0181 45.3736C72.0743 45.3736 72.1305 45.3736 72.243 45.3736C72.2992 45.3736 72.3554 45.3174 72.4679 45.3174C72.5241 45.2612 72.5803 45.2612 72.6366 45.205C72.6928 45.1487 72.749 45.0925 72.749 44.9801L73.1988 45.2612C73.1426 45.3736 73.0864 45.4861 72.9739 45.5423C72.8615 45.5985 72.8052 45.711 72.6928 45.7672C72.5803 45.8234 72.4679 45.8797 72.3554 45.8797C72.243 45.9359 72.1305 45.9359 71.9619 45.9359C71.737 45.9359 71.5683 45.8797 71.3996 45.8234C71.2309 45.711 71.0623 45.5985 70.9498 45.4861C70.8374 45.3174 70.7249 45.205 70.6687 44.9801C70.7249 44.6427 70.6687 44.4178 70.6687 44.2491Z" fill="#333333"/>
<path d="M73.7049 42.7871H74.2672V43.8554H74.8294C74.9981 43.8554 75.1105 43.8554 75.223 43.9116C75.3354 43.9678 75.4479 44.0241 75.5603 44.0803C75.6728 44.1365 75.729 44.249 75.7852 44.3614C75.8414 44.4739 75.8414 44.5863 75.8414 44.755C75.8414 44.9237 75.8414 45.0361 75.7852 45.1486C75.729 45.261 75.6728 45.3735 75.5603 45.4297C75.4479 45.4859 75.3354 45.5984 75.223 45.5984C75.1105 45.6546 74.9418 45.6546 74.8294 45.6546H73.6487V42.7871H73.7049ZM74.2672 45.261H74.7732C74.9419 45.261 75.0543 45.2048 75.1105 45.1486C75.1667 45.0361 75.223 44.9237 75.223 44.8112C75.223 44.6425 75.1667 44.5301 75.1105 44.4739C75.0543 44.3614 74.8856 44.3614 74.7732 44.3614H74.2672V45.261Z" fill="#333333"/>
<path d="M76.8535 44.0241H77.0784L77.978 42.7871H78.6527L77.5844 44.1927L78.7652 45.7108H78.0905L77.1346 44.4739H76.8535V45.7108H76.2913V42.7871H76.8535V44.0241Z" fill="#333333"/>
<path d="M79.8334 42.7871H80.3394L81.4639 45.7108H80.9017L80.6206 44.9799H79.6085L79.3274 45.7108H78.7651L79.8334 42.7871ZM80.5081 44.5863L80.1145 43.4056L79.6647 44.5863H80.5081Z" fill="#333333"/>
<path d="M83.6005 42.7871H84.1065L85.231 45.7108H84.6688L84.3876 44.9799H83.3756L83.0945 45.7108H82.5322L83.6005 42.7871ZM84.2752 44.5863L83.8816 43.4056L83.4318 44.5863H84.2752Z" fill="#333333"/>
<path d="M85.2872 44.2491C85.2872 44.0805 85.3435 43.9118 85.3997 43.7431C85.4559 43.5744 85.5684 43.4058 85.6808 43.2933C85.7933 43.1809 85.9619 43.0684 86.1306 42.956C86.2993 42.8435 86.5242 42.8435 86.7491 42.8435C87.0302 42.8435 87.2551 42.8997 87.48 43.0122C87.7049 43.1246 87.8174 43.2933 87.9298 43.462L87.48 43.7431C87.4238 43.6869 87.3675 43.5744 87.3113 43.5182C87.2551 43.462 87.1989 43.4058 87.1427 43.4058C87.0864 43.3495 87.0302 43.3495 86.9178 43.3495C86.8615 43.3495 86.8053 43.3495 86.6929 43.3495C86.5242 43.3495 86.4117 43.4058 86.2993 43.462C86.1868 43.5182 86.1306 43.5744 86.0182 43.6869C85.9619 43.7993 85.9057 43.9118 85.8495 44.0242C85.7933 44.1367 85.7933 44.2491 85.7933 44.3616C85.7933 44.474 85.7933 44.6427 85.8495 44.7552C85.9057 44.8676 85.9619 44.9801 86.0182 45.0925C86.0744 45.205 86.1868 45.2612 86.2993 45.3174C86.4117 45.3736 86.5242 45.3736 86.6366 45.3736C86.6929 45.3736 86.7491 45.3736 86.8615 45.3736C86.9178 45.3736 86.974 45.3174 87.0864 45.3174C87.1427 45.2612 87.1989 45.2612 87.2551 45.205C87.3113 45.1487 87.3676 45.0925 87.3676 44.9801L87.8174 45.2612C87.7611 45.3736 87.7049 45.4861 87.5924 45.5423C87.48 45.5985 87.4238 45.711 87.3113 45.7672C87.1989 45.8234 87.0864 45.8797 86.974 45.8797C86.8615 45.9359 86.7491 45.9359 86.6366 45.9359C86.4117 45.9359 86.2431 45.8797 86.0744 45.8234C85.9057 45.711 85.737 45.5985 85.6246 45.4861C85.5121 45.3174 85.3997 45.205 85.3435 44.9801C85.2872 44.6427 85.2872 44.4178 85.2872 44.2491Z" fill="#333333"/>
<path d="M89.504 45.767C89.2791 45.767 89.1104 45.7108 88.9418 45.6546C88.7731 45.5984 88.6044 45.4859 88.492 45.3172C88.3795 45.2048 88.2671 45.0361 88.2108 44.8112C88.1546 44.6425 88.0984 44.4739 88.0984 44.249C88.0984 44.0803 88.1546 43.8554 88.2108 43.6867C88.2671 43.518 88.3795 43.3494 88.492 43.2369C88.6044 43.1245 88.7731 43.012 88.9418 42.8996C89.1104 42.8433 89.3353 42.7871 89.504 42.7871C89.7289 42.7871 89.8976 42.8433 90.0663 42.8996C90.2349 43.012 90.4036 43.1245 90.5161 43.2369C90.6285 43.4056 90.741 43.518 90.7972 43.7429C90.8534 43.9116 90.9096 44.0803 90.9096 44.3052C90.9096 44.4739 90.8534 44.6988 90.7972 44.8674C90.741 45.0361 90.6285 45.2048 90.5161 45.3172C90.4036 45.4297 90.2349 45.5421 90.0663 45.6546C89.8976 45.7108 89.7289 45.767 89.504 45.767ZM88.6606 44.249C88.6606 44.3614 88.6606 44.4739 88.7169 44.6425C88.7731 44.755 88.8293 44.8674 88.8855 44.9799C88.9418 45.0923 89.0542 45.1486 89.1667 45.2048C89.2791 45.261 89.3916 45.261 89.504 45.261C89.6165 45.261 89.7851 45.2048 89.8976 45.1486C90.01 45.0923 90.0663 45.0361 90.1787 44.9237C90.2349 44.8112 90.2912 44.6988 90.3474 44.5863C90.4036 44.4739 90.4036 44.3614 90.4036 44.249C90.4036 44.1365 90.4036 44.0241 90.3474 43.8554C90.2912 43.7429 90.2349 43.6305 90.1787 43.518C90.1225 43.4056 90.01 43.3494 89.8976 43.2931C89.7851 43.2369 89.6727 43.2369 89.5602 43.2369C89.4478 43.2369 89.2791 43.2931 89.1667 43.3494C89.0542 43.4056 88.9418 43.4618 88.8855 43.5743C88.8293 43.6867 88.7731 43.7992 88.7169 43.9116C88.6606 44.0241 88.6606 44.1365 88.6606 44.249Z" fill="#333333"/>
<path d="M93.6084 45.7108H91.4156V42.7871H91.9779V45.2048H93.1024V42.7871H93.6646V45.2048H94.1144V46.4417H93.5522V45.7108H93.6084Z" fill="#333333"/>
<path d="M94.5081 45.7108V42.7871H95.0703V45.7108H94.5081Z" fill="#333333"/>
<path d="M96.5884 42.7871H97.0944L98.2189 45.7108H97.6567L97.3756 44.9799H96.3635L96.0824 45.7108H95.5201L96.5884 42.7871ZM97.2069 44.5863L96.8133 43.4056L96.3635 44.5863H97.2069Z" fill="#333333"/>
<path d="M100.749 45.7108H98.5563V42.7871H99.1185V45.2048H100.243V42.7871H100.805V45.2048H101.255V46.4417H100.693V45.7108H100.749Z" fill="#333333"/>
<path d="M101.649 45.7108V42.7871H102.211V45.7108H101.649Z" fill="#333333"/>
<path d="M104.404 45.7108V44.6425H103.954L103.279 45.7108H102.661L103.392 44.5301C103.223 44.4739 103.11 44.3614 102.998 44.1927C102.886 44.0241 102.829 43.8554 102.829 43.6867C102.829 43.5743 102.829 43.4618 102.886 43.3494C102.942 43.2369 102.998 43.1245 103.054 43.0682C103.11 42.9558 103.223 42.8996 103.335 42.8433C103.448 42.7871 103.56 42.7871 103.729 42.7871H104.966V45.7108H104.404V45.7108ZM104.404 43.2931H103.785C103.729 43.2931 103.673 43.2931 103.616 43.3494C103.56 43.3494 103.504 43.4056 103.504 43.4618C103.448 43.518 103.448 43.518 103.392 43.5743C103.392 43.6305 103.335 43.6867 103.335 43.7429C103.335 43.8554 103.392 43.9678 103.448 44.0803C103.504 44.1365 103.616 44.1927 103.729 44.1927H104.347V43.2931H104.404Z" fill="#333333"/>
<path d="M108.902 44.9801C108.902 45.0925 108.902 45.205 108.845 45.3174C108.789 45.4299 108.733 45.4861 108.62 45.5423C108.508 45.5985 108.452 45.6548 108.339 45.711C108.227 45.7672 108.114 45.7672 107.946 45.7672H106.54V42.8435H108.114C108.227 42.8435 108.283 42.8435 108.396 42.8997C108.452 42.956 108.564 43.0122 108.62 43.0684C108.677 43.1246 108.733 43.2371 108.733 43.2933C108.789 43.4058 108.789 43.462 108.789 43.5744C108.789 43.7431 108.733 43.8556 108.677 43.968C108.62 44.0805 108.508 44.1929 108.339 44.2491C108.508 44.3054 108.62 44.3616 108.733 44.5303C108.902 44.6427 108.902 44.8114 108.902 44.9801ZM107.102 43.2933V44.0242H107.89C108.002 44.0242 108.058 43.968 108.114 43.9118C108.171 43.8556 108.227 43.7431 108.227 43.6307C108.227 43.5182 108.171 43.4058 108.114 43.3495C108.058 43.2933 108.002 43.2371 107.89 43.2371H107.102V43.2933ZM108.339 44.8676C108.339 44.8114 108.339 44.7552 108.339 44.6989C108.339 44.6427 108.283 44.5865 108.283 44.5865C108.227 44.5303 108.227 44.5303 108.171 44.474C108.114 44.474 108.058 44.4178 108.058 44.4178H107.159V45.205H108.002C108.058 45.205 108.114 45.205 108.171 45.1487C108.227 45.1487 108.283 45.0925 108.283 45.0925C108.339 45.0363 108.339 45.0363 108.339 44.9801C108.339 44.9801 108.339 44.9238 108.339 44.8676Z" fill="#333333"/>
<path d="M110.42 45.7108V42.7871H110.982V45.7108H110.42Z" fill="#333333"/>
<path d="M111.432 44.2491C111.432 44.0805 111.488 43.9118 111.544 43.7431C111.6 43.5744 111.713 43.4058 111.825 43.2933C111.938 43.1809 112.106 43.0684 112.275 42.956C112.444 42.8435 112.669 42.8435 112.894 42.8435C113.175 42.8435 113.4 42.8997 113.625 43.0122C113.849 43.1246 113.962 43.2933 114.074 43.462L113.625 43.7431C113.568 43.6869 113.512 43.5744 113.456 43.5182C113.4 43.462 113.343 43.4058 113.287 43.4058C113.231 43.3495 113.175 43.3495 113.062 43.3495C113.006 43.3495 112.95 43.3495 112.837 43.3495C112.669 43.3495 112.556 43.4058 112.444 43.462C112.331 43.5182 112.275 43.5744 112.163 43.6869C112.106 43.7993 112.05 43.9118 111.994 44.0242C111.938 44.1367 111.938 44.2491 111.938 44.3616C111.938 44.474 111.938 44.6427 111.994 44.7552C112.05 44.8676 112.106 44.9801 112.163 45.0925C112.219 45.205 112.331 45.2612 112.444 45.3174C112.556 45.3736 112.669 45.3736 112.781 45.3736C112.837 45.3736 112.894 45.3736 113.006 45.3736C113.062 45.3736 113.175 45.3174 113.231 45.3174C113.287 45.2612 113.343 45.2612 113.4 45.205C113.456 45.1487 113.512 45.0925 113.512 44.9801L113.962 45.2612C113.906 45.3736 113.849 45.4861 113.737 45.5423C113.625 45.5985 113.568 45.711 113.456 45.7672C113.343 45.8234 113.231 45.8797 113.119 45.8797C113.006 45.9359 112.894 45.9359 112.781 45.9359C112.556 45.9359 112.388 45.8797 112.219 45.8234C112.05 45.711 111.882 45.5985 111.769 45.4861C111.657 45.3174 111.544 45.205 111.488 44.9801C111.488 44.6427 111.432 44.4178 111.432 44.2491Z" fill="#333333"/>
<path d="M114.468 42.7871H116.886V45.7108H116.323V43.2931H115.03V45.7108H114.468V42.7871Z" fill="#333333"/>
<path d="M118.404 42.7871H118.91L120.034 45.7108H119.472L119.135 44.9799H118.123L117.841 45.7108H117.279L118.404 42.7871ZM119.022 44.5863L118.629 43.4056L118.179 44.5863H119.022Z" fill="#333333"/>
<path d="M122.789 42.7871V45.7108H122.227V44.4739H120.878V45.7108H120.315V42.7871H120.878V43.9678H122.227V42.7871H122.789Z" fill="#333333"/>
<path d="M123.464 45.7108V42.7871H124.026V45.7108H123.464Z" fill="#333333"/>
<path d="M124.307 42.4499V41.9438H124.757V42.4499H124.307ZM124.645 45.7109V42.7872H125.207V45.7109H124.645ZM125.094 42.4499V41.9438H125.544V42.4499H125.094Z" fill="#333333"/>
<path d="M39.5764 41.3815H41.3194C40.5885 35.7028 43.0624 37.1084 46.0985 21.4779C45.7049 20.241 45.2551 19.1165 44.7491 18.1606H49.9218C49.3033 29.6305 49.3033 34.0161 52.6768 41.4377H54.0262C55.8254 43.8554 53.6889 45.8233 50.7089 47.2851C49.3595 47.7912 49.7531 48.5783 49.5282 48.4659C49.0784 48.2972 48.5724 47.51 49.3033 46.6104C50.3154 45.261 50.7089 44.0803 49.978 42.506H43.6246C42.8937 44.0803 43.2873 45.261 44.2993 46.6104C44.974 47.5663 44.5242 48.2972 44.0744 48.4659C43.8495 48.5783 44.2431 47.7912 42.8937 47.2851C39.9138 45.7671 37.7772 43.7992 39.5764 41.3815ZM46.211 41.3815H48.0101C48.2913 35.4779 47.9539 29.3494 46.8294 24.3454C43.0624 35.253 45.0865 39.0201 46.211 41.3815Z" fill="#3A59A1"/>
<path d="M63.6969 31.767C63.6969 31.9919 63.8656 32.1043 64.0343 31.8232C67.8576 24.6264 67.4078 23.8393 66.1708 21.6465H69.8816C71.9057 25.6385 64.3716 29.8553 64.4278 33.4537C64.4278 34.4658 66.3957 35.9276 67.2391 36.265C69.6567 37.3332 71.3435 38.9638 69.8816 40.8754H66.1708C67.97 38.4577 66.6768 37.0521 64.0343 34.8593C63.8094 34.6907 63.6969 34.8031 63.6969 35.028C63.8656 37.4457 64.6527 39.3573 65.0463 40.8754H60.9419C61.3917 39.3011 62.1226 37.3895 62.2913 35.028C62.2913 34.8031 62.1226 34.6907 61.9539 34.8593C59.3676 37.0521 58.0744 38.4577 59.8174 40.8754H56.1628C54.7009 38.9638 56.3877 37.3332 58.8053 36.265C59.6487 35.9276 61.5604 34.4095 61.6166 33.4537C61.6728 29.8553 54.1387 25.6385 56.1628 21.6465H59.8736C58.6367 23.8393 58.1869 24.5702 62.0102 31.8232C62.1788 32.1043 62.3475 31.9919 62.3475 31.767C62.5162 29.9678 61.6728 23.5581 60.9981 21.6465C62.1226 21.6465 63.6407 21.6465 65.1025 21.6465C64.3716 23.5581 63.472 29.9678 63.6969 31.767Z" fill="#3A59A1"/>
<path d="M77.1909 28.787C79.6086 29.518 81.2953 30.6425 79.8335 31.9356H76.1226C77.8094 29.2931 75.3917 29.5742 74.9981 28.787C74.8294 32.4979 75.3917 36.4336 76.2351 40.0883H78.2592C78.8214 38.8513 79.1588 37.0521 78.4841 35.8152C78.0343 34.9718 78.1467 33.7911 78.5403 33.6786C78.709 33.6224 78.8776 34.6907 79.6086 35.2529C81.0704 36.4336 82.3074 38.6826 81.464 40.8754H72.2993C74.1547 35.2529 73.5363 26.8192 72.2993 21.6465H81.1829C82.6447 23.5581 80.9017 25.1324 78.5403 26.2569C77.472 26.6505 77.8094 27.269 77.6407 27.2128C77.3033 27.0441 76.9098 26.4818 77.472 25.6947C78.3154 24.6264 78.5965 23.6706 78.0343 22.4336H76.2351C75.6728 23.8955 75.3355 25.4136 75.1668 27.0441C75.0543 28.3372 76.3475 28.5059 77.1909 28.787Z" fill="#3A59A1"/>
<path d="M83.713 40.8754C85.5684 35.2529 84.95 26.8192 83.713 21.6465H92.5965C94.0584 23.5581 92.3154 25.1324 89.954 26.2569C88.3797 26.9879 86.6929 28.8433 86.468 30.7549C86.2994 32.5541 87.1427 38.9638 87.8174 40.8754H83.713ZM86.7492 27.6625C89.0544 25.6947 90.2913 24.4015 89.3917 22.4336H87.5363C87.0865 23.783 86.5243 25.4698 86.4118 27.4939C86.3556 27.7188 86.6367 27.8874 86.7492 27.6625Z" fill="#3A59A1"/>
<path d="M99.6809 28.787C102.099 29.518 103.785 30.6425 102.323 31.9356H98.6126C100.299 29.2931 97.8817 29.5742 97.4881 28.787C97.3194 32.4979 97.8817 36.4336 98.725 40.0883H100.749C101.311 38.8513 101.649 37.0521 100.974 35.8152C100.524 34.9718 100.637 33.7911 101.03 33.6786C101.199 33.6224 101.368 34.6907 102.099 35.2529C103.56 36.4336 104.797 38.6826 103.954 40.8754H94.7893C96.6447 35.2529 96.0263 26.8192 94.7893 21.6465H103.673C105.135 23.5581 103.392 25.1324 101.03 26.2569C99.962 26.6505 100.299 27.269 100.131 27.2128C99.7933 27.0441 99.3997 26.4818 99.962 25.6947C100.805 24.6264 101.086 23.6706 100.524 22.4336H98.6688C98.1066 23.8955 97.7692 25.4136 97.6006 27.0441C97.5443 28.3372 98.8375 28.5059 99.6809 28.787Z" fill="#3A59A1"/>
<path d="M109.97 24.2891C109.633 23.277 109.295 22.4336 108.902 21.6465H113.006C112.5 31.1485 112.5 34.522 115.536 40.8754H111.432C111.769 35.9276 111.488 30.6987 110.588 26.5381C107.103 36.5461 109.801 38.9638 110.42 40.8754H106.315C105.416 35.3654 107.496 37.3895 109.97 24.2891Z" fill="#3A59A1"/>
<path d="M119.866 40.8754C119.528 40.8754 118.966 40.7629 118.853 40.5381C119.191 40.032 118.235 38.5702 117.167 35.6465C115.986 32.3292 116.38 28.1686 118.179 25.1887C119.078 23.5581 119.584 22.3212 118.966 21.6465H121.833C122.171 21.6465 122.733 21.7589 122.845 21.9838C122.508 22.4899 123.464 23.9517 124.532 26.8754C125.713 30.1927 125.319 34.3533 123.52 37.3332C122.621 38.9638 122.115 40.2007 122.733 40.8754H119.866ZM119.078 25.6947C116.042 31.5983 120.596 34.9718 121.665 38.514C122.002 38.0642 122.339 37.5019 122.677 36.8834C125.713 30.9798 121.159 27.6063 120.09 24.0642C119.697 24.514 119.36 25.0762 119.078 25.6947Z" fill="#3A59A1"/>
</g>
<defs>
<clipPath id="clip0_4102_17763">
<rect width="125.1" height="70" fill="white" transform="translate(0.5)"/>
</clipPath>
</defs>
</svg>
