<svg width="1600" height="637" viewBox="0 0 1600 637" fill="none" xmlns="http://www.w3.org/2000/svg">
<mask id="path-1-inside-1_291_16380" fill="white">
<path fill-rule="evenodd" clip-rule="evenodd" d="M-20.5 62L-32 317.042L152.391 419.864C159.165 422.703 161.856 423.888 165.62 425.69C167.881 426.772 174.99 430.019 181.419 432.906C187.848 435.793 193.648 438.555 194.308 439.044C194.968 439.533 197.453 440.684 199.831 441.601C202.208 442.518 207.621 444.888 211.859 446.867C216.098 448.846 222.026 451.468 225.032 452.693C228.038 453.918 231.275 455.323 232.225 455.815C236.719 458.142 257.381 466.634 259.64 467.082C260.487 467.251 261.437 467.618 261.75 467.899C262.283 468.377 265.299 469.661 270.686 471.703C271.957 472.185 273.46 472.796 274.025 473.061C277.247 474.57 292.795 480.486 296.117 481.466C297.53 481.883 300.304 482.884 302.282 483.69C308.087 486.055 317.412 489.408 323.09 491.171C325.209 491.829 327.267 492.664 327.664 493.028C328.061 493.391 328.87 493.708 329.462 493.732C330.054 493.756 332.158 494.339 334.136 495.027C348.756 500.113 351.329 500.953 352.275 500.953C352.862 500.953 353.468 501.185 353.622 501.468C353.777 501.75 354.542 502.117 355.322 502.283C357.109 502.663 366.37 505.467 373.439 507.767C382.861 510.834 408.978 518.477 412.999 519.344C413.705 519.496 418.329 520.767 423.274 522.167C428.219 523.567 434.462 525.245 437.146 525.895C439.83 526.545 444.223 527.61 446.908 528.261C449.592 528.911 454.678 530.219 458.21 531.168C464.784 532.933 467.241 533.549 477.99 536.124C488.897 538.737 491.271 539.292 495.458 540.209C497.719 540.704 503.383 542.017 508.046 543.127C512.708 544.236 520.569 546.047 525.514 547.151C530.459 548.255 536.701 549.699 539.385 550.362C542.07 551.024 548.743 552.438 554.214 553.504C559.686 554.57 564.31 555.672 564.49 555.952C564.669 556.232 565.857 556.488 567.129 556.521C568.4 556.554 573.487 557.394 578.432 558.388C594.333 561.584 599.164 562.519 602.836 563.114C604.814 563.434 608.744 564.098 611.57 564.591C643.355 570.124 663.166 572.976 694.543 576.535C706.06 577.842 708.553 578.136 741.039 582.011C753.189 583.46 764.056 584.78 765.186 584.943C766.316 585.107 774.639 585.755 783.682 586.384C792.724 587.013 803.821 587.804 808.342 588.143C837.68 590.336 851.034 591.044 863.829 591.081C882.202 591.136 900.822 591.955 908.27 593.036C911.802 593.549 920.356 594.756 927.279 595.721C941.679 597.726 947.464 598.937 958.038 602.158C974.992 607.322 991.081 613.551 1007.43 621.277C1020.62 627.516 1031.15 631.014 1043.18 633.155C1057.99 635.794 1067.81 636.368 1104.13 636.719C1138.12 637.048 1145.15 636.808 1156.42 634.934C1159.1 634.488 1162.35 633.988 1163.64 633.823C1166.41 633.469 1175.11 631.763 1186.47 629.344C1194.72 627.588 1200.7 626.088 1212.16 622.894C1215.55 621.949 1220.76 620.543 1223.72 619.77C1226.69 618.996 1230.62 617.855 1232.46 617.235C1234.29 616.615 1237.99 615.444 1240.68 614.635C1246.57 612.857 1255.96 608.867 1262.48 605.377C1274.34 599.02 1281.07 591.254 1282.1 582.729C1283.04 575.007 1278.3 572.368 1263.31 572.252C1255.18 572.189 1246.82 573.203 1232.97 575.933C1231.42 576.239 1228.18 576.746 1225.78 577.06C1223.38 577.374 1218.87 578.045 1215.76 578.552C1212.65 579.059 1204.56 580.378 1197.78 581.482C1191 582.586 1183.37 583.873 1180.82 584.34C1178.28 584.806 1170.86 585.901 1164.34 586.772C1153.96 588.156 1152.26 588.256 1150.79 587.567C1147.21 585.891 1145.99 580.33 1148.58 577.531C1150.45 575.514 1152.1 574.863 1157.82 573.892C1160.45 573.446 1163.93 572.802 1165.55 572.463C1167.17 572.123 1175.2 570.67 1183.39 569.233C1191.59 567.795 1199.45 566.361 1200.86 566.046C1202.27 565.73 1204.45 565.332 1205.7 565.162C1206.94 564.991 1208.97 564.597 1210.19 564.286C1211.42 563.976 1213.86 563.479 1215.63 563.182C1229.45 560.86 1260.98 553.908 1285.63 547.748C1287.33 547.324 1295.65 545.266 1304.13 543.176C1322 538.768 1323.87 538.176 1329.01 535.329C1333.69 532.736 1338.96 527.067 1340.98 522.459C1343.52 516.653 1344.24 512.26 1343.59 506.396C1343.06 501.523 1342.94 501.17 1341.13 499.401C1336.9 495.269 1329.2 494.184 1318.85 496.263C1315.36 496.964 1312 497.754 1311.39 498.019C1310.77 498.284 1307.96 498.94 1305.14 499.477C1302.32 500.015 1298.98 500.714 1297.7 501.03C1296.43 501.348 1289.84 502.754 1283.06 504.156C1276.28 505.558 1268.3 507.232 1265.34 507.876C1258.48 509.365 1249.12 511.319 1234.51 514.315C1228.15 515.619 1221.22 517.057 1219.1 517.512C1214.59 518.48 1207.07 519.853 1199.83 521.027C1197.01 521.486 1191.57 522.387 1187.76 523.03C1176.48 524.929 1174.87 524.659 1173.82 520.698C1172.59 516.044 1175.03 514.122 1185.19 511.727C1188.72 510.895 1195.43 509.315 1200.09 508.216C1204.75 507.117 1210.76 505.669 1213.45 505C1216.13 504.33 1219.83 503.415 1221.67 502.967C1223.5 502.518 1227.32 501.505 1230.14 500.715C1232.97 499.924 1238.17 498.494 1241.7 497.535C1245.24 496.575 1255.06 493.794 1263.54 491.355C1272.02 488.915 1279.88 486.707 1281.01 486.447C1282.14 486.188 1288.09 484.507 1294.24 482.712C1300.38 480.916 1310.32 478.022 1316.33 476.279C1339.11 469.666 1343.34 467.528 1350.95 458.766C1356.08 452.861 1357.56 449.281 1357.55 442.83C1357.54 438.897 1357.31 437.404 1356.42 435.51C1353.86 430.048 1349.75 427.855 1341.05 427.305C1334.43 426.887 1331 427.568 1307.72 433.904C1284.29 440.282 1280.03 441.438 1273.56 443.167C1270.59 443.959 1267.35 444.846 1266.37 445.138C1265.38 445.429 1261.33 446.477 1257.37 447.465C1253.42 448.455 1249.72 449.389 1249.15 449.541C1244.73 450.737 1204.19 460.377 1199.32 461.392C1195.93 462.099 1191.54 463.072 1189.56 463.555C1187.58 464.037 1183.88 464.559 1181.34 464.716C1177.27 464.967 1176.51 464.855 1175.01 463.784C1172.2 461.772 1170.93 456.172 1172.43 452.437C1173.88 448.853 1181.66 445.711 1196.24 442.828C1205.27 441.04 1212.64 439.409 1217.31 438.162C1224.23 436.316 1241.6 431.913 1262.77 426.64C1296.91 418.134 1303.29 416.289 1306.65 413.939C1309.51 411.941 1313.02 408.052 1313.95 405.841C1315.37 402.484 1316.19 397.826 1316.19 393.076C1316.2 389.147 1316.01 388.044 1315.04 386.426C1313.3 383.506 1310.06 381.927 1304.23 381.163C1298.39 380.397 1294.63 380.808 1279.72 383.842C1274.5 384.906 1266.17 386.59 1261.23 387.585C1256.28 388.58 1249.81 389.911 1246.84 390.543C1234.95 393.075 1221.01 395.902 1213.7 397.263C1209.47 398.053 1201.72 399.497 1196.49 400.472C1191.27 401.446 1182.6 402.988 1177.23 403.898C1171.86 404.808 1162.84 406.335 1157.19 407.291C1146.35 409.124 1117.93 413.216 1108.38 414.32C1105.27 414.679 1098.45 415.495 1093.23 416.134C1088 416.772 1081.64 417.542 1079.1 417.846C1047.14 421.657 1046.47 421.719 1046.47 420.831C1046.47 420.559 1047.11 419.267 1047.89 417.959C1050.87 412.936 1064.3 403.001 1073.82 398.771C1084.9 393.85 1086.9 393.304 1113.78 387.838C1134.14 383.697 1144.82 379.268 1151.9 372.032C1154.9 368.965 1158.31 363.743 1160.02 359.58C1161.9 354.984 1162.87 347.17 1162.05 343.044C1160.96 337.509 1157.29 332.465 1153.48 331.269C1151 330.491 1144.8 330.501 1135.35 331.299C1131.24 331.648 1116.62 331.894 1102.67 331.85C1079.36 331.778 1077.08 331.859 1072.82 332.912C1064.92 334.863 1059.77 338.024 1032.6 357.638C1006.26 376.65 996.728 382.923 980.224 392.094C961.916 402.269 944.071 409.856 930.619 413.184C926.663 414.163 915.681 416.853 906.215 419.162L889.004 423.359L864.6 423.212C851.178 423.132 832.682 422.768 823.498 422.404C814.315 422.04 799.552 421.641 790.692 421.517L774.583 421.292L765.261 424.875C756.339 428.303 746.89 432.505 736.929 437.471C729.758 441.047 711.98 447.962 704.38 450.133C693.415 453.264 681.404 454.281 649.332 454.795C617.403 455.307 599.891 454.294 577.94 450.663C574.984 450.174 571.054 449.376 569.206 448.889C567.357 448.402 563.648 447.496 560.964 446.877C544.181 443.002 534.107 439.903 512.156 431.867C503.815 428.813 500.653 427.589 491.366 423.815C485.563 421.458 474.281 414.414 470.279 410.651C467.663 408.19 465.427 404.552 464.897 401.892C464.67 400.752 464.633 399.818 464.815 399.817C464.997 399.815 465.592 398.573 466.136 397.056C467.796 392.428 469.323 390.17 472.099 388.238C475.588 385.809 479.315 385.071 485.954 385.496C490.922 385.814 501.61 387.286 503.422 387.902C503.846 388.046 506.158 388.424 508.56 388.742C512.576 389.273 518.972 390.358 530.908 392.531C540.821 394.337 566.252 398.821 574.065 400.141C586.491 402.241 591.083 401.941 593.387 398.882C595.363 396.259 594.786 391.519 592.189 389.047C590.373 387.318 588.751 386.815 578.263 384.729C563.495 381.792 548.104 378.39 537.587 375.739C531.936 374.315 520.492 371.425 512.156 369.318C503.82 367.211 495.497 365.12 493.66 364.67C488.492 363.405 483.03 362.033 455.642 355.118C421.278 346.442 416.743 344.743 411.215 338.477C407.214 333.941 406.218 327.802 408.246 320.19C410.073 313.336 413.64 308.971 419.399 306.544C422.59 305.2 431.038 305.172 436.496 306.488C438.54 306.981 440.968 307.531 441.891 307.71C445.483 308.41 454.159 310.427 460.779 312.102C464.594 313.067 474.073 315.29 481.844 317.042C489.614 318.793 501.059 321.379 507.275 322.788C534.206 328.892 548.212 331.854 561.065 334.164C566.365 335.117 570.119 334.687 571.335 332.988C572.788 330.959 572.529 328.124 570.672 325.732C568.819 323.345 565.681 322.131 552.487 318.698C539.042 315.2 530.408 312.723 520.89 309.633C515.945 308.028 511.032 306.476 509.972 306.184C508.913 305.893 502.208 303.8 495.073 301.536C487.938 299.271 475.396 295.335 467.201 292.79C459.007 290.245 447.794 286.722 442.284 284.96C436.773 283.199 429.375 280.843 425.843 279.726C412.917 275.637 406.989 272.676 402.78 268.205C399.128 264.325 398.613 262.782 398.613 255.7C398.613 247.827 399.313 245.165 402.28 241.756C405.958 237.528 411.212 235.325 417.589 235.334C421.692 235.34 431.444 237.17 438.173 239.196C439.728 239.665 443.163 240.699 445.808 241.497C448.453 242.294 453.192 243.813 456.34 244.872C459.488 245.932 463.798 247.259 465.917 247.821C468.036 248.383 472.891 249.825 476.706 251.025C483.92 253.294 497.989 257.675 510.358 261.503C514.314 262.728 522.406 265.166 528.34 266.922C537.769 269.712 542.948 271.161 559.679 275.685C570.486 278.608 575.366 276.921 575.338 270.271C575.303 262.093 570.468 258.156 555.569 254.174C550.212 252.742 506.19 240.161 482.357 233.25C453.784 224.965 447.529 222.426 444.183 217.752C440.879 213.137 440.482 211.798 440.522 205.397C440.565 198.618 441.676 195.193 444.771 192.307C448.128 189.177 450.467 188.693 460.93 188.965C471.31 189.234 473.276 189.591 490.835 194.387C512.026 200.176 568.661 213.434 590.248 217.659C594.346 218.461 600.819 219.873 604.634 220.797C608.449 221.721 619.893 224.312 630.065 226.553C640.238 228.796 654.456 231.932 661.662 233.522C668.868 235.113 678.776 237.239 683.68 238.247L692.597 240.079L694.084 238.468C694.902 237.582 695.571 236.593 695.571 236.271C695.571 234.904 692.567 230.971 688.687 227.257C679.774 218.725 673.567 214.075 665.471 209.863C657.233 205.577 653.367 204.363 638.286 201.326C616.162 196.869 605.344 191.727 597.226 181.808C593.944 177.797 593.252 176.462 592.07 171.864C590.985 167.639 590.921 158.163 591.953 154.41C592.924 150.882 595.265 147.561 598.342 145.349C602.523 142.341 603.814 142.187 618.949 142.885C626.476 143.232 640.169 143.77 649.378 144.08C667.706 144.698 671.82 145.154 679.13 147.381C688.595 150.265 692.883 153.068 706.151 165.044C714.637 172.702 721.458 178.368 747.718 199.563C762.358 211.38 763.994 212.609 771.351 217.308C787.406 227.564 802.897 234.502 831.462 244.233C840.963 247.47 855.688 251.962 859.401 252.756C865.134 253.983 896.334 254.659 915.206 253.965C925.096 253.602 951.105 253.06 973.005 252.76C1004.66 252.326 1015.51 251.976 1025.92 251.051C1033.13 250.411 1044.34 249.497 1050.84 249.019C1067.41 247.8 1075.83 247.065 1080.9 246.394C1083.3 246.075 1088.04 245.528 1091.43 245.178C1094.82 244.827 1108.69 242.986 1122.25 241.086C1143.87 238.058 1152.56 236.798 1170.03 234.163C1172.29 233.822 1175.3 233.298 1176.71 232.999C1178.13 232.699 1182.06 231.933 1185.45 231.297C1199.43 228.671 1216.84 225.17 1236.05 221.116C1238.17 220.669 1243.84 219.487 1248.64 218.491C1253.44 217.493 1260.38 215.917 1264.05 214.988C1267.73 214.059 1275.12 212.232 1280.49 210.928C1289.57 208.723 1300.51 205.875 1312.86 202.501C1315.69 201.729 1319.84 200.677 1322.09 200.164C1324.35 199.651 1327.93 198.7 1330.06 198.052C1332.18 197.404 1337.05 195.972 1340.86 194.87C1344.68 193.769 1348.84 192.51 1350.11 192.071C1351.38 191.633 1354.27 190.717 1356.53 190.035C1359.82 189.042 1381.35 182.221 1389.67 179.537C1390.66 179.217 1394.36 178.025 1397.89 176.888C1401.42 175.751 1408.36 173.375 1413.3 171.609C1418.25 169.842 1424.84 167.488 1427.94 166.379C1431.05 165.269 1440.71 161.717 1449.39 158.487L1615.5 91L1629.5 0.5L-20.5 0.499908V62ZM469.058 385.143C468.026 387.275 464.376 392.441 464.376 391.768C464.376 390.358 465.826 387.188 467.163 385.675C468.743 383.887 469.81 383.588 469.058 385.143ZM490.578 560.257C490.578 560.567 490.925 560.82 491.348 560.82C491.772 560.82 492.119 560.717 492.119 560.592C492.119 560.466 491.772 560.213 491.348 560.028C490.925 559.845 490.578 559.948 490.578 560.257Z"/>
</mask>
<path fill-rule="evenodd" clip-rule="evenodd" d="M-20.5 62L-32 317.042L152.391 419.864C159.165 422.703 161.856 423.888 165.62 425.69C167.881 426.772 174.99 430.019 181.419 432.906C187.848 435.793 193.648 438.555 194.308 439.044C194.968 439.533 197.453 440.684 199.831 441.601C202.208 442.518 207.621 444.888 211.859 446.867C216.098 448.846 222.026 451.468 225.032 452.693C228.038 453.918 231.275 455.323 232.225 455.815C236.719 458.142 257.381 466.634 259.64 467.082C260.487 467.251 261.437 467.618 261.75 467.899C262.283 468.377 265.299 469.661 270.686 471.703C271.957 472.185 273.46 472.796 274.025 473.061C277.247 474.57 292.795 480.486 296.117 481.466C297.53 481.883 300.304 482.884 302.282 483.69C308.087 486.055 317.412 489.408 323.09 491.171C325.209 491.829 327.267 492.664 327.664 493.028C328.061 493.391 328.87 493.708 329.462 493.732C330.054 493.756 332.158 494.339 334.136 495.027C348.756 500.113 351.329 500.953 352.275 500.953C352.862 500.953 353.468 501.185 353.622 501.468C353.777 501.75 354.542 502.117 355.322 502.283C357.109 502.663 366.37 505.467 373.439 507.767C382.861 510.834 408.978 518.477 412.999 519.344C413.705 519.496 418.329 520.767 423.274 522.167C428.219 523.567 434.462 525.245 437.146 525.895C439.83 526.545 444.223 527.61 446.908 528.261C449.592 528.911 454.678 530.219 458.21 531.168C464.784 532.933 467.241 533.549 477.99 536.124C488.897 538.737 491.271 539.292 495.458 540.209C497.719 540.704 503.383 542.017 508.046 543.127C512.708 544.236 520.569 546.047 525.514 547.151C530.459 548.255 536.701 549.699 539.385 550.362C542.07 551.024 548.743 552.438 554.214 553.504C559.686 554.57 564.31 555.672 564.49 555.952C564.669 556.232 565.857 556.488 567.129 556.521C568.4 556.554 573.487 557.394 578.432 558.388C594.333 561.584 599.164 562.519 602.836 563.114C604.814 563.434 608.744 564.098 611.57 564.591C643.355 570.124 663.166 572.976 694.543 576.535C706.06 577.842 708.553 578.136 741.039 582.011C753.189 583.46 764.056 584.78 765.186 584.943C766.316 585.107 774.639 585.755 783.682 586.384C792.724 587.013 803.821 587.804 808.342 588.143C837.68 590.336 851.034 591.044 863.829 591.081C882.202 591.136 900.822 591.955 908.27 593.036C911.802 593.549 920.356 594.756 927.279 595.721C941.679 597.726 947.464 598.937 958.038 602.158C974.992 607.322 991.081 613.551 1007.43 621.277C1020.62 627.516 1031.15 631.014 1043.18 633.155C1057.99 635.794 1067.81 636.368 1104.13 636.719C1138.12 637.048 1145.15 636.808 1156.42 634.934C1159.1 634.488 1162.35 633.988 1163.64 633.823C1166.41 633.469 1175.11 631.763 1186.47 629.344C1194.72 627.588 1200.7 626.088 1212.16 622.894C1215.55 621.949 1220.76 620.543 1223.72 619.77C1226.69 618.996 1230.62 617.855 1232.46 617.235C1234.29 616.615 1237.99 615.444 1240.68 614.635C1246.57 612.857 1255.96 608.867 1262.48 605.377C1274.34 599.02 1281.07 591.254 1282.1 582.729C1283.04 575.007 1278.3 572.368 1263.31 572.252C1255.18 572.189 1246.82 573.203 1232.97 575.933C1231.42 576.239 1228.18 576.746 1225.78 577.06C1223.38 577.374 1218.87 578.045 1215.76 578.552C1212.65 579.059 1204.56 580.378 1197.78 581.482C1191 582.586 1183.37 583.873 1180.82 584.34C1178.28 584.806 1170.86 585.901 1164.34 586.772C1153.96 588.156 1152.26 588.256 1150.79 587.567C1147.21 585.891 1145.99 580.33 1148.58 577.531C1150.45 575.514 1152.1 574.863 1157.82 573.892C1160.45 573.446 1163.93 572.802 1165.55 572.463C1167.17 572.123 1175.2 570.67 1183.39 569.233C1191.59 567.795 1199.45 566.361 1200.86 566.046C1202.27 565.73 1204.45 565.332 1205.7 565.162C1206.94 564.991 1208.97 564.597 1210.19 564.286C1211.42 563.976 1213.86 563.479 1215.63 563.182C1229.45 560.86 1260.98 553.908 1285.63 547.748C1287.33 547.324 1295.65 545.266 1304.13 543.176C1322 538.768 1323.87 538.176 1329.01 535.329C1333.69 532.736 1338.96 527.067 1340.98 522.459C1343.52 516.653 1344.24 512.26 1343.59 506.396C1343.06 501.523 1342.94 501.17 1341.13 499.401C1336.9 495.269 1329.2 494.184 1318.85 496.263C1315.36 496.964 1312 497.754 1311.39 498.019C1310.77 498.284 1307.96 498.94 1305.14 499.477C1302.32 500.015 1298.98 500.714 1297.7 501.03C1296.43 501.348 1289.84 502.754 1283.06 504.156C1276.28 505.558 1268.3 507.232 1265.34 507.876C1258.48 509.365 1249.12 511.319 1234.51 514.315C1228.15 515.619 1221.22 517.057 1219.1 517.512C1214.59 518.48 1207.07 519.853 1199.83 521.027C1197.01 521.486 1191.57 522.387 1187.76 523.03C1176.48 524.929 1174.87 524.659 1173.82 520.698C1172.59 516.044 1175.03 514.122 1185.19 511.727C1188.72 510.895 1195.43 509.315 1200.09 508.216C1204.75 507.117 1210.76 505.669 1213.45 505C1216.13 504.33 1219.83 503.415 1221.67 502.967C1223.5 502.518 1227.32 501.505 1230.14 500.715C1232.97 499.924 1238.17 498.494 1241.7 497.535C1245.24 496.575 1255.06 493.794 1263.54 491.355C1272.02 488.915 1279.88 486.707 1281.01 486.447C1282.14 486.188 1288.09 484.507 1294.24 482.712C1300.38 480.916 1310.32 478.022 1316.33 476.279C1339.11 469.666 1343.34 467.528 1350.95 458.766C1356.08 452.861 1357.56 449.281 1357.55 442.83C1357.54 438.897 1357.31 437.404 1356.42 435.51C1353.86 430.048 1349.75 427.855 1341.05 427.305C1334.43 426.887 1331 427.568 1307.72 433.904C1284.29 440.282 1280.03 441.438 1273.56 443.167C1270.59 443.959 1267.35 444.846 1266.37 445.138C1265.38 445.429 1261.33 446.477 1257.37 447.465C1253.42 448.455 1249.72 449.389 1249.15 449.541C1244.73 450.737 1204.19 460.377 1199.32 461.392C1195.93 462.099 1191.54 463.072 1189.56 463.555C1187.58 464.037 1183.88 464.559 1181.34 464.716C1177.27 464.967 1176.51 464.855 1175.01 463.784C1172.2 461.772 1170.93 456.172 1172.43 452.437C1173.88 448.853 1181.66 445.711 1196.24 442.828C1205.27 441.04 1212.64 439.409 1217.31 438.162C1224.23 436.316 1241.6 431.913 1262.77 426.64C1296.91 418.134 1303.29 416.289 1306.65 413.939C1309.51 411.941 1313.02 408.052 1313.95 405.841C1315.37 402.484 1316.19 397.826 1316.19 393.076C1316.2 389.147 1316.01 388.044 1315.04 386.426C1313.3 383.506 1310.06 381.927 1304.23 381.163C1298.39 380.397 1294.63 380.808 1279.72 383.842C1274.5 384.906 1266.17 386.59 1261.23 387.585C1256.28 388.58 1249.81 389.911 1246.84 390.543C1234.95 393.075 1221.01 395.902 1213.7 397.263C1209.47 398.053 1201.72 399.497 1196.49 400.472C1191.27 401.446 1182.6 402.988 1177.23 403.898C1171.86 404.808 1162.84 406.335 1157.19 407.291C1146.35 409.124 1117.93 413.216 1108.38 414.32C1105.27 414.679 1098.45 415.495 1093.23 416.134C1088 416.772 1081.64 417.542 1079.1 417.846C1047.14 421.657 1046.47 421.719 1046.47 420.831C1046.47 420.559 1047.11 419.267 1047.89 417.959C1050.87 412.936 1064.3 403.001 1073.82 398.771C1084.9 393.85 1086.9 393.304 1113.78 387.838C1134.14 383.697 1144.82 379.268 1151.9 372.032C1154.9 368.965 1158.31 363.743 1160.02 359.58C1161.9 354.984 1162.87 347.17 1162.05 343.044C1160.96 337.509 1157.29 332.465 1153.48 331.269C1151 330.491 1144.8 330.501 1135.35 331.299C1131.24 331.648 1116.62 331.894 1102.67 331.85C1079.36 331.778 1077.08 331.859 1072.82 332.912C1064.92 334.863 1059.77 338.024 1032.6 357.638C1006.26 376.65 996.728 382.923 980.224 392.094C961.916 402.269 944.071 409.856 930.619 413.184C926.663 414.163 915.681 416.853 906.215 419.162L889.004 423.359L864.6 423.212C851.178 423.132 832.682 422.768 823.498 422.404C814.315 422.04 799.552 421.641 790.692 421.517L774.583 421.292L765.261 424.875C756.339 428.303 746.89 432.505 736.929 437.471C729.758 441.047 711.98 447.962 704.38 450.133C693.415 453.264 681.404 454.281 649.332 454.795C617.403 455.307 599.891 454.294 577.94 450.663C574.984 450.174 571.054 449.376 569.206 448.889C567.357 448.402 563.648 447.496 560.964 446.877C544.181 443.002 534.107 439.903 512.156 431.867C503.815 428.813 500.653 427.589 491.366 423.815C485.563 421.458 474.281 414.414 470.279 410.651C467.663 408.19 465.427 404.552 464.897 401.892C464.67 400.752 464.633 399.818 464.815 399.817C464.997 399.815 465.592 398.573 466.136 397.056C467.796 392.428 469.323 390.17 472.099 388.238C475.588 385.809 479.315 385.071 485.954 385.496C490.922 385.814 501.61 387.286 503.422 387.902C503.846 388.046 506.158 388.424 508.56 388.742C512.576 389.273 518.972 390.358 530.908 392.531C540.821 394.337 566.252 398.821 574.065 400.141C586.491 402.241 591.083 401.941 593.387 398.882C595.363 396.259 594.786 391.519 592.189 389.047C590.373 387.318 588.751 386.815 578.263 384.729C563.495 381.792 548.104 378.39 537.587 375.739C531.936 374.315 520.492 371.425 512.156 369.318C503.82 367.211 495.497 365.12 493.66 364.67C488.492 363.405 483.03 362.033 455.642 355.118C421.278 346.442 416.743 344.743 411.215 338.477C407.214 333.941 406.218 327.802 408.246 320.19C410.073 313.336 413.64 308.971 419.399 306.544C422.59 305.2 431.038 305.172 436.496 306.488C438.54 306.981 440.968 307.531 441.891 307.71C445.483 308.41 454.159 310.427 460.779 312.102C464.594 313.067 474.073 315.29 481.844 317.042C489.614 318.793 501.059 321.379 507.275 322.788C534.206 328.892 548.212 331.854 561.065 334.164C566.365 335.117 570.119 334.687 571.335 332.988C572.788 330.959 572.529 328.124 570.672 325.732C568.819 323.345 565.681 322.131 552.487 318.698C539.042 315.2 530.408 312.723 520.89 309.633C515.945 308.028 511.032 306.476 509.972 306.184C508.913 305.893 502.208 303.8 495.073 301.536C487.938 299.271 475.396 295.335 467.201 292.79C459.007 290.245 447.794 286.722 442.284 284.96C436.773 283.199 429.375 280.843 425.843 279.726C412.917 275.637 406.989 272.676 402.78 268.205C399.128 264.325 398.613 262.782 398.613 255.7C398.613 247.827 399.313 245.165 402.28 241.756C405.958 237.528 411.212 235.325 417.589 235.334C421.692 235.34 431.444 237.17 438.173 239.196C439.728 239.665 443.163 240.699 445.808 241.497C448.453 242.294 453.192 243.813 456.34 244.872C459.488 245.932 463.798 247.259 465.917 247.821C468.036 248.383 472.891 249.825 476.706 251.025C483.92 253.294 497.989 257.675 510.358 261.503C514.314 262.728 522.406 265.166 528.34 266.922C537.769 269.712 542.948 271.161 559.679 275.685C570.486 278.608 575.366 276.921 575.338 270.271C575.303 262.093 570.468 258.156 555.569 254.174C550.212 252.742 506.19 240.161 482.357 233.25C453.784 224.965 447.529 222.426 444.183 217.752C440.879 213.137 440.482 211.798 440.522 205.397C440.565 198.618 441.676 195.193 444.771 192.307C448.128 189.177 450.467 188.693 460.93 188.965C471.31 189.234 473.276 189.591 490.835 194.387C512.026 200.176 568.661 213.434 590.248 217.659C594.346 218.461 600.819 219.873 604.634 220.797C608.449 221.721 619.893 224.312 630.065 226.553C640.238 228.796 654.456 231.932 661.662 233.522C668.868 235.113 678.776 237.239 683.68 238.247L692.597 240.079L694.084 238.468C694.902 237.582 695.571 236.593 695.571 236.271C695.571 234.904 692.567 230.971 688.687 227.257C679.774 218.725 673.567 214.075 665.471 209.863C657.233 205.577 653.367 204.363 638.286 201.326C616.162 196.869 605.344 191.727 597.226 181.808C593.944 177.797 593.252 176.462 592.07 171.864C590.985 167.639 590.921 158.163 591.953 154.41C592.924 150.882 595.265 147.561 598.342 145.349C602.523 142.341 603.814 142.187 618.949 142.885C626.476 143.232 640.169 143.77 649.378 144.08C667.706 144.698 671.82 145.154 679.13 147.381C688.595 150.265 692.883 153.068 706.151 165.044C714.637 172.702 721.458 178.368 747.718 199.563C762.358 211.38 763.994 212.609 771.351 217.308C787.406 227.564 802.897 234.502 831.462 244.233C840.963 247.47 855.688 251.962 859.401 252.756C865.134 253.983 896.334 254.659 915.206 253.965C925.096 253.602 951.105 253.06 973.005 252.76C1004.66 252.326 1015.51 251.976 1025.92 251.051C1033.13 250.411 1044.34 249.497 1050.84 249.019C1067.41 247.8 1075.83 247.065 1080.9 246.394C1083.3 246.075 1088.04 245.528 1091.43 245.178C1094.82 244.827 1108.69 242.986 1122.25 241.086C1143.87 238.058 1152.56 236.798 1170.03 234.163C1172.29 233.822 1175.3 233.298 1176.71 232.999C1178.13 232.699 1182.06 231.933 1185.45 231.297C1199.43 228.671 1216.84 225.17 1236.05 221.116C1238.17 220.669 1243.84 219.487 1248.64 218.491C1253.44 217.493 1260.38 215.917 1264.05 214.988C1267.73 214.059 1275.12 212.232 1280.49 210.928C1289.57 208.723 1300.51 205.875 1312.86 202.501C1315.69 201.729 1319.84 200.677 1322.09 200.164C1324.35 199.651 1327.93 198.7 1330.06 198.052C1332.18 197.404 1337.05 195.972 1340.86 194.87C1344.68 193.769 1348.84 192.51 1350.11 192.071C1351.38 191.633 1354.27 190.717 1356.53 190.035C1359.82 189.042 1381.35 182.221 1389.67 179.537C1390.66 179.217 1394.36 178.025 1397.89 176.888C1401.42 175.751 1408.36 173.375 1413.3 171.609C1418.25 169.842 1424.84 167.488 1427.94 166.379C1431.05 165.269 1440.71 161.717 1449.39 158.487L1615.5 91L1629.5 0.5L-20.5 0.499908V62ZM469.058 385.143C468.026 387.275 464.376 392.441 464.376 391.768C464.376 390.358 465.826 387.188 467.163 385.675C468.743 383.887 469.81 383.588 469.058 385.143ZM490.578 560.257C490.578 560.567 490.925 560.82 491.348 560.82C491.772 560.82 492.119 560.717 492.119 560.592C492.119 560.466 491.772 560.213 491.348 560.028C490.925 559.845 490.578 559.948 490.578 560.257Z" stroke="#FFE711" stroke-width="4" mask="url(#path-1-inside-1_291_16380)"/>
</svg>
